<svg xmlns="http://www.w3.org/2000/svg" xmlns:xlink="http://www.w3.org/1999/xlink" width="911.25" viewBox="0 0 911.25 405" height="405" version="1.0"><defs><clipPath id="b"><path d="M 0 0.167969 L 910.5 0.167969 L 910.5 404.832031 L 0 404.832031 Z M 0 0.167969"/></clipPath><clipPath id="c"><path d="M 164.078125 315.800781 L 750.097656 315.800781 L 750.097656 339.78125 L 164.078125 339.78125 Z M 164.078125 315.800781"/></clipPath><clipPath id="d"><path d="M 749.816406 244.617188 L 164.078125 244.617188 L 164.078125 339.964844 L 749.816406 339.964844 C 776.03125 339.964844 797.308594 318.609375 797.308594 292.292969 C 797.308594 265.976562 776.03125 244.617188 749.816406 244.617188 Z M 749.816406 244.617188"/></clipPath><clipPath id="h"><path d="M 0 1.019531 L 173.535156 1.019531 L 173.535156 204.101562 L 0 204.101562 Z M 0 1.019531"/></clipPath><clipPath id="g"><path d="M0 0H174V205H0z"/></clipPath><clipPath id="i"><path d="M 761 202 L 910.5 202 L 910.5 378 L 761 378 Z M 761 202"/></clipPath><clipPath id="l"><path d="M 0.238281 0.5 L 149.5 0.5 L 149.5 175 L 0.238281 175 Z M 0.238281 0.5"/></clipPath><clipPath id="m"><path d="M 102 84 L 149.5 84 L 149.5 91 L 102 91 Z M 102 84"/></clipPath><clipPath id="n"><path d="M 110 108 L 149.5 108 L 149.5 114 L 110 114 Z M 110 108"/></clipPath><clipPath id="o"><path d="M 125 119 L 149.5 119 L 149.5 126 L 125 126 Z M 125 119"/></clipPath><clipPath id="k"><path d="M0 0H150V176H0z"/></clipPath><mask id="f"><g filter="url(#a)"><path fill-opacity=".278" d="M-91.125 -40.5H1002.375V445.5H-91.125z"/></g></mask><mask id="j"><g filter="url(#a)"><path fill-opacity=".278" d="M-91.125 -40.5H1002.375V445.5H-91.125z"/></g></mask><linearGradient x1="0" gradientTransform="matrix(1.26646 0 0 1.2713 164.079 244.618)" xmlns:xlink="http://www.w3.org/1999/xlink" y1="37.5" x2="462.722" gradientUnits="userSpaceOnUse" y2="37.5" xlink:type="simple" xlink:actuate="onLoad" id="e" xlink:show="other"><stop offset="0"/><stop stop-color="#000101" offset=".004"/><stop stop-color="#000103" offset=".008"/><stop stop-color="#000204" offset=".012"/><stop stop-color="#000205" offset=".016"/><stop stop-color="#000306" offset=".02"/><stop stop-color="#000308" offset=".023"/><stop stop-color="#000409" offset=".027"/><stop stop-color="#00040A" offset=".031"/><stop stop-color="#00050B" offset=".035"/><stop stop-color="#00050D" offset=".039"/><stop stop-color="#00060E" offset=".043"/><stop stop-color="#00060F" offset=".047"/><stop stop-color="#000710" offset=".051"/><stop stop-color="#000812" offset=".055"/><stop stop-color="#000813" offset=".059"/><stop stop-color="#000914" offset=".063"/><stop stop-color="#000915" offset=".066"/><stop stop-color="#000A17" offset=".07"/><stop stop-color="#000A18" offset=".074"/><stop stop-color="#000B19" offset=".078"/><stop stop-color="#000B1B" offset=".082"/><stop stop-color="#000C1C" offset=".086"/><stop stop-color="#000C1D" offset=".09"/><stop stop-color="#000D1E" offset=".094"/><stop stop-color="#000D20" offset=".098"/><stop stop-color="#000E21" offset=".102"/><stop stop-color="#000F22" offset=".105"/><stop stop-color="#000F23" offset=".109"/><stop stop-color="#001025" offset=".113"/><stop stop-color="#001026" offset=".117"/><stop stop-color="#001127" offset=".121"/><stop stop-color="#001128" offset=".125"/><stop stop-color="#00122A" offset=".129"/><stop stop-color="#00122B" offset=".133"/><stop stop-color="#00132C" offset=".137"/><stop stop-color="#00132D" offset=".141"/><stop stop-color="#00142F" offset=".145"/><stop stop-color="#001530" offset=".148"/><stop stop-color="#001531" offset=".152"/><stop stop-color="#001633" offset=".156"/><stop stop-color="#001634" offset=".16"/><stop stop-color="#001735" offset=".164"/><stop stop-color="#001736" offset=".168"/><stop stop-color="#001838" offset=".172"/><stop stop-color="#001839" offset=".176"/><stop stop-color="#00193A" offset=".18"/><stop stop-color="#00193B" offset=".184"/><stop stop-color="#001A3D" offset=".188"/><stop stop-color="#001A3E" offset=".191"/><stop stop-color="#001B3F" offset=".195"/><stop stop-color="#001C40" offset=".199"/><stop stop-color="#001C42" offset=".203"/><stop stop-color="#001D43" offset=".207"/><stop stop-color="#001D44" offset=".211"/><stop stop-color="#001E45" offset=".215"/><stop stop-color="#001E47" offset=".219"/><stop stop-color="#001F48" offset=".223"/><stop stop-color="#001F49" offset=".227"/><stop stop-color="#00204A" offset=".23"/><stop stop-color="#00204C" offset=".234"/><stop stop-color="#00214D" offset=".238"/><stop stop-color="#00214E" offset=".242"/><stop stop-color="#002250" offset=".246"/><stop stop-color="#002351" offset=".25"/><stop stop-color="#002352" offset=".254"/><stop stop-color="#002453" offset=".258"/><stop stop-color="#002455" offset=".262"/><stop stop-color="#002556" offset=".266"/><stop stop-color="#002557" offset=".27"/><stop stop-color="#002658" offset=".273"/><stop stop-color="#00265A" offset=".277"/><stop stop-color="#00275B" offset=".281"/><stop stop-color="#00275C" offset=".285"/><stop stop-color="#00285D" offset=".289"/><stop stop-color="#00295F" offset=".293"/><stop stop-color="#002960" offset=".297"/><stop stop-color="#002A61" offset=".301"/><stop stop-color="#002A62" offset=".305"/><stop stop-color="#002B64" offset=".309"/><stop stop-color="#002B65" offset=".313"/><stop stop-color="#002C66" offset=".316"/><stop stop-color="#002C68" offset=".32"/><stop stop-color="#002D69" offset=".324"/><stop stop-color="#002D6A" offset=".328"/><stop stop-color="#002E6B" offset=".332"/><stop stop-color="#002E6D" offset=".336"/><stop stop-color="#002F6E" offset=".34"/><stop stop-color="#00306F" offset=".344"/><stop stop-color="#003070" offset=".348"/><stop stop-color="#003172" offset=".352"/><stop stop-color="#003173" offset=".355"/><stop stop-color="#003274" offset=".359"/><stop stop-color="#003275" offset=".363"/><stop stop-color="#037" offset=".367"/><stop stop-color="#003378" offset=".371"/><stop stop-color="#003479" offset=".375"/><stop stop-color="#00347A" offset=".379"/><stop stop-color="#00357C" offset=".383"/><stop stop-color="#00357D" offset=".387"/><stop stop-color="#00367E" offset=".391"/><stop stop-color="#003780" offset=".395"/><stop stop-color="#003781" offset=".398"/><stop stop-color="#003882" offset=".402"/><stop stop-color="#003883" offset=".406"/><stop stop-color="#003985" offset=".41"/><stop stop-color="#003986" offset=".414"/><stop stop-color="#003A87" offset=".418"/><stop stop-color="#003A88" offset=".422"/><stop stop-color="#003B8A" offset=".426"/><stop stop-color="#003B8B" offset=".43"/><stop stop-color="#003C8C" offset=".434"/><stop stop-color="#003C8D" offset=".438"/><stop stop-color="#003D8F" offset=".441"/><stop stop-color="#003E90" offset=".445"/><stop stop-color="#003E91" offset=".449"/><stop stop-color="#003F92" offset=".453"/><stop stop-color="#003F94" offset=".457"/><stop stop-color="#004095" offset=".461"/><stop stop-color="#004096" offset=".465"/><stop stop-color="#004198" offset=".469"/><stop stop-color="#004199" offset=".473"/><stop stop-color="#00429A" offset=".477"/><stop stop-color="#00429B" offset=".48"/><stop stop-color="#00439D" offset=".484"/><stop stop-color="#00449E" offset=".488"/><stop stop-color="#00449F" offset=".492"/><stop stop-color="#0045A0" offset=".496"/><stop stop-color="#0045A2" offset=".5"/><stop stop-color="#0046A3" offset=".504"/><stop stop-color="#0046A4" offset=".508"/><stop stop-color="#0047A5" offset=".512"/><stop stop-color="#0047A7" offset=".516"/><stop stop-color="#0048A8" offset=".52"/><stop stop-color="#0048A9" offset=".523"/><stop stop-color="#0049AA" offset=".527"/><stop stop-color="#0049AC" offset=".531"/><stop stop-color="#0049AC" offset=".535"/><stop stop-color="#0049AC" offset=".539"/><stop stop-color="#0049AA" offset=".543"/><stop stop-color="#0048A9" offset=".547"/><stop stop-color="#0048A8" offset=".551"/><stop stop-color="#0047A7" offset=".555"/><stop stop-color="#0047A5" offset=".559"/><stop stop-color="#0046A4" offset=".563"/><stop stop-color="#0046A3" offset=".566"/><stop stop-color="#0045A2" offset=".57"/><stop stop-color="#0045A0" offset=".574"/><stop stop-color="#00449F" offset=".578"/><stop stop-color="#00449E" offset=".582"/><stop stop-color="#00439D" offset=".586"/><stop stop-color="#00439B" offset=".59"/><stop stop-color="#00429A" offset=".594"/><stop stop-color="#004199" offset=".598"/><stop stop-color="#004198" offset=".602"/><stop stop-color="#004097" offset=".605"/><stop stop-color="#004095" offset=".609"/><stop stop-color="#003F94" offset=".613"/><stop stop-color="#003F93" offset=".617"/><stop stop-color="#003E92" offset=".621"/><stop stop-color="#003E90" offset=".625"/><stop stop-color="#003D8F" offset=".629"/><stop stop-color="#003D8E" offset=".633"/><stop stop-color="#003C8D" offset=".637"/><stop stop-color="#003C8B" offset=".641"/><stop stop-color="#003B8A" offset=".645"/><stop stop-color="#003B89" offset=".648"/><stop stop-color="#003A88" offset=".652"/><stop stop-color="#003A86" offset=".656"/><stop stop-color="#003985" offset=".66"/><stop stop-color="#003884" offset=".664"/><stop stop-color="#003883" offset=".668"/><stop stop-color="#003781" offset=".672"/><stop stop-color="#003780" offset=".676"/><stop stop-color="#00367F" offset=".68"/><stop stop-color="#00367E" offset=".684"/><stop stop-color="#00357D" offset=".688"/><stop stop-color="#00357B" offset=".691"/><stop stop-color="#00347A" offset=".695"/><stop stop-color="#003479" offset=".699"/><stop stop-color="#003378" offset=".703"/><stop stop-color="#003376" offset=".707"/><stop stop-color="#003275" offset=".711"/><stop stop-color="#003274" offset=".715"/><stop stop-color="#003173" offset=".719"/><stop stop-color="#003171" offset=".723"/><stop stop-color="#003070" offset=".727"/><stop stop-color="#002F6F" offset=".73"/><stop stop-color="#002F6E" offset=".734"/><stop stop-color="#002E6C" offset=".738"/><stop stop-color="#002E6B" offset=".742"/><stop stop-color="#002D6A" offset=".746"/><stop stop-color="#002D69" offset=".75"/><stop stop-color="#002C67" offset=".754"/><stop stop-color="#002C66" offset=".758"/><stop stop-color="#002B65" offset=".762"/><stop stop-color="#002B64" offset=".766"/><stop stop-color="#002A63" offset=".77"/><stop stop-color="#002A61" offset=".773"/><stop stop-color="#002960" offset=".777"/><stop stop-color="#00295F" offset=".781"/><stop stop-color="#00285E" offset=".785"/><stop stop-color="#00285C" offset=".789"/><stop stop-color="#00275B" offset=".793"/><stop stop-color="#00265A" offset=".797"/><stop stop-color="#002659" offset=".801"/><stop stop-color="#002557" offset=".805"/><stop stop-color="#002556" offset=".809"/><stop stop-color="#002455" offset=".813"/><stop stop-color="#002454" offset=".816"/><stop stop-color="#002352" offset=".82"/><stop stop-color="#002351" offset=".824"/><stop stop-color="#002250" offset=".828"/><stop stop-color="#00224F" offset=".832"/><stop stop-color="#00214E" offset=".836"/><stop stop-color="#00214C" offset=".84"/><stop stop-color="#00204B" offset=".844"/><stop stop-color="#00204A" offset=".848"/><stop stop-color="#001F49" offset=".852"/><stop stop-color="#001F47" offset=".855"/><stop stop-color="#001E46" offset=".859"/><stop stop-color="#001D45" offset=".863"/><stop stop-color="#001D44" offset=".867"/><stop stop-color="#001C42" offset=".871"/><stop stop-color="#001C41" offset=".875"/><stop stop-color="#001B40" offset=".879"/><stop stop-color="#001B3F" offset=".883"/><stop stop-color="#001A3D" offset=".887"/><stop stop-color="#001A3C" offset=".891"/><stop stop-color="#00193B" offset=".895"/><stop stop-color="#00193A" offset=".898"/><stop stop-color="#001838" offset=".902"/><stop stop-color="#001837" offset=".906"/><stop stop-color="#001736" offset=".91"/><stop stop-color="#001735" offset=".914"/><stop stop-color="#001634" offset=".918"/><stop stop-color="#001632" offset=".922"/><stop stop-color="#001531" offset=".926"/><stop stop-color="#001430" offset=".93"/><stop stop-color="#00142F" offset=".934"/><stop stop-color="#00132D" offset=".938"/><stop stop-color="#00132C" offset=".941"/><stop stop-color="#00122B" offset=".945"/><stop stop-color="#00122A" offset=".949"/><stop stop-color="#001128" offset=".953"/><stop stop-color="#001127" offset=".957"/><stop stop-color="#001026" offset=".961"/><stop stop-color="#001025" offset=".965"/><stop stop-color="#000F23" offset=".969"/><stop stop-color="#000F22" offset=".973"/><stop stop-color="#000E21" offset=".977"/><stop stop-color="#000E20" offset=".98"/><stop stop-color="#000D1E" offset=".984"/><stop stop-color="#000D1D" offset=".988"/><stop stop-color="#000C1C" offset=".992"/><stop stop-color="#000B1B" offset=".996"/><stop stop-color="#000B1A" offset="1"/></linearGradient><filter x="0%" y="0%" width="100%" xmlns:xlink="http://www.w3.org/1999/xlink" xlink:type="simple" xlink:actuate="onLoad" height="100%" id="a" xlink:show="other"><feColorMatrix values="0 0 0 0 1 0 0 0 0 1 0 0 0 0 1 0 0 0 1 0" color-interpolation-filters="sRGB"/></filter></defs><g clip-path="url(#b)"><path fill="#FFF" d="M 0 0.167969 L 911.25 0.167969 L 911.25 412.328125 L 0 412.328125 Z M 0 0.167969"/><path fill="#FFF" d="M 0 0.167969 L 910.5 0.167969 L 910.5 404.832031 L 0 404.832031 Z M 0 0.167969"/><path fill="#166ACF" d="M 0 0.167969 L 910.5 0.167969 L 910.5 404.832031 L 0 404.832031 Z M 0 0.167969"/></g><g clip-path="url(#c)"><g clip-path="url(#d)"><path fill="url(#e)" d="M 164.078125 315.800781 L 164.078125 339.78125 L 750.097656 339.78125 L 750.097656 315.800781 Z M 164.078125 315.800781"/></g></g><g mask="url(#f)"><g><g clip-path="url(#g)" transform="translate(0 29)"><g clip-path="url(#h)"><path d="M -57.957031 1.019531 C -58.558594 1.019531 -59.019531 1.277344 -59.339844 1.785156 L -59.347656 1.785156 L -69.125 17.398438 L -76.011719 17.398438 C -85.058594 17.398438 -92.421875 24.742188 -92.421875 33.773438 L -92.421875 177.898438 C -92.421875 186.929688 -85.058594 194.273438 -76.011719 194.273438 L 20.433594 194.273438 C 22.503906 197.769531 27.988281 204.101562 40.519531 204.101562 C 53.046875 204.101562 58.53125 197.769531 60.605469 194.273438 L 157.046875 194.273438 C 166.097656 194.273438 173.460938 186.929688 173.460938 177.898438 L 173.460938 33.773438 C 173.460938 24.742188 166.097656 17.398438 157.046875 17.398438 L 150.160156 17.398438 L 140.433594 1.871094 C 140.417969 1.839844 140.402344 1.8125 140.382812 1.785156 C 140.0625 1.273438 139.597656 1.019531 138.992188 1.019531 C 102.734375 1.019531 77.945312 5.953125 62.179688 10.921875 C 47.851562 15.4375 41.671875 19.617188 40.519531 20.421875 C 39.363281 19.617188 33.183594 15.4375 18.855469 10.921875 C 3.089844 5.953125 -21.699219 1.019531 -57.957031 1.019531 Z M -56.316406 4.351562 C -21.324219 4.507812 2.703125 9.265625 17.867188 14.042969 C 31.21875 18.25 37.378906 22.160156 38.875 23.1875 L 38.875 133.679688 C 38.875 133.898438 38.914062 134.109375 38.996094 134.3125 C 39.078125 134.515625 39.195312 134.695312 39.347656 134.851562 C 39.503906 135.007812 39.683594 135.128906 39.882812 135.210938 C 40.085938 135.296875 40.296875 135.339844 40.519531 135.339844 C 40.738281 135.339844 40.949219 135.296875 41.152344 135.210938 C 41.355469 135.128906 41.53125 135.007812 41.6875 134.851562 C 41.839844 134.695312 41.960938 134.515625 42.039062 134.3125 C 42.121094 134.109375 42.164062 133.898438 42.160156 133.679688 L 42.160156 23.1875 C 43.65625 22.160156 49.816406 18.25 63.167969 14.042969 C 78.332031 9.265625 102.359375 4.507812 137.351562 4.351562 L 137.351562 155.027344 C 102.054688 155.183594 77.703125 159.984375 62.199219 164.871094 C 61.992188 164.9375 61.800781 165.039062 61.632812 165.179688 C 61.464844 165.316406 61.328125 165.484375 61.226562 165.675781 C 61.125 165.871094 61.066406 166.078125 61.046875 166.292969 C 61.027344 166.511719 61.050781 166.726562 61.117188 166.933594 C 61.183594 167.140625 61.289062 167.328125 61.429688 167.496094 C 61.570312 167.664062 61.738281 167.796875 61.933594 167.894531 C 62.128906 167.996094 62.335938 168.054688 62.554688 168.070312 C 62.773438 168.089844 62.984375 168.0625 63.195312 167.996094 C 78.496094 163.171875 102.703125 158.328125 138.230469 158.257812 L 151.898438 174.621094 L 41.011719 174.621094 C 39.832031 173.800781 33.148438 169.375 18.855469 164.871094 C 3.347656 159.984375 -21.019531 155.183594 -56.316406 155.027344 Z M -59.597656 8.371094 L -59.597656 156.011719 L -72.726562 171.730469 L -72.726562 29.328125 Z M 140.632812 8.371094 L 153.765625 29.328125 L 153.765625 171.730469 L 140.632812 156.011719 Z M -38.339844 20.671875 C -38.554688 20.675781 -38.761719 20.71875 -38.960938 20.800781 C -39.160156 20.882812 -39.335938 21.003906 -39.488281 21.15625 C -39.640625 21.308594 -39.757812 21.484375 -39.839844 21.683594 C -39.921875 21.882812 -39.964844 22.089844 -39.964844 22.304688 C -39.964844 22.519531 -39.925781 22.726562 -39.84375 22.925781 C -39.761719 23.125 -39.648438 23.300781 -39.496094 23.457031 C -39.34375 23.609375 -39.171875 23.730469 -38.972656 23.8125 C -38.773438 23.898438 -38.566406 23.945312 -38.351562 23.949219 C -25.777344 24.628906 -14.972656 26.027344 -5.738281 27.753906 C -5.519531 27.804688 -5.300781 27.808594 -5.082031 27.765625 C -4.863281 27.726562 -4.660156 27.648438 -4.476562 27.523438 C -4.289062 27.402344 -4.132812 27.25 -4.011719 27.0625 C -3.886719 26.878906 -3.804688 26.675781 -3.765625 26.457031 C -3.722656 26.238281 -3.726562 26.019531 -3.773438 25.804688 C -3.824219 25.585938 -3.910156 25.386719 -4.042969 25.207031 C -4.171875 25.023438 -4.328125 24.875 -4.519531 24.761719 C -4.710938 24.644531 -4.914062 24.570312 -5.136719 24.535156 C -14.507812 22.785156 -25.457031 21.359375 -38.171875 20.671875 C -38.226562 20.667969 -38.285156 20.667969 -38.339844 20.671875 Z M 119.207031 20.671875 C 117.757812 20.75 116.332031 20.84375 114.933594 20.941406 C 114.714844 20.957031 114.507812 21.011719 114.3125 21.109375 C 114.117188 21.207031 113.949219 21.335938 113.804688 21.503906 C 113.664062 21.667969 113.558594 21.851562 113.488281 22.058594 C 113.417969 22.265625 113.394531 22.476562 113.410156 22.695312 C 113.425781 22.910156 113.480469 23.117188 113.578125 23.3125 C 113.675781 23.503906 113.808594 23.675781 113.972656 23.816406 C 114.140625 23.957031 114.324219 24.0625 114.53125 24.132812 C 114.738281 24.199219 114.953125 24.226562 115.167969 24.210938 C 116.550781 24.113281 117.957031 24.027344 119.386719 23.949219 C 119.605469 23.9375 119.8125 23.882812 120.007812 23.789062 C 120.207031 23.695312 120.375 23.566406 120.523438 23.40625 C 120.667969 23.242188 120.777344 23.058594 120.847656 22.855469 C 120.921875 22.648438 120.949219 22.4375 120.9375 22.21875 C 120.925781 22.003906 120.875 21.796875 120.78125 21.601562 C 120.683594 21.40625 120.558594 21.234375 120.394531 21.089844 C 120.234375 20.945312 120.046875 20.835938 119.84375 20.761719 C 119.636719 20.691406 119.425781 20.660156 119.207031 20.671875 Z M 107.015625 21.636719 C 106.976562 21.640625 106.9375 21.644531 106.898438 21.652344 C 106.898438 21.652344 97.257812 22.738281 95.828125 22.941406 C 95.609375 22.972656 95.410156 23.042969 95.222656 23.15625 C 95.035156 23.265625 94.875 23.410156 94.746094 23.582031 C 94.613281 23.757812 94.523438 23.949219 94.46875 24.160156 C 94.414062 24.371094 94.402344 24.582031 94.433594 24.796875 C 94.464844 25.015625 94.535156 25.214844 94.648438 25.402344 C 94.757812 25.589844 94.902344 25.746094 95.074219 25.878906 C 95.25 26.007812 95.445312 26.101562 95.65625 26.152344 C 95.867188 26.207031 96.078125 26.21875 96.292969 26.1875 C 97.1875 26.058594 107.269531 24.902344 107.269531 24.902344 C 107.480469 24.875 107.679688 24.8125 107.863281 24.710938 C 108.046875 24.609375 108.207031 24.476562 108.34375 24.3125 C 108.476562 24.148438 108.574219 23.964844 108.636719 23.765625 C 108.699219 23.5625 108.722656 23.359375 108.707031 23.148438 C 108.691406 22.9375 108.636719 22.738281 108.542969 22.546875 C 108.449219 22.359375 108.320312 22.195312 108.164062 22.054688 C 108.007812 21.914062 107.828125 21.808594 107.628906 21.734375 C 107.429688 21.664062 107.226562 21.632812 107.015625 21.636719 Z M -76.011719 23.949219 L -73.226562 23.949219 L -75.761719 27.992188 C -75.925781 28.257812 -76.011719 28.546875 -76.011719 28.859375 L -76.011719 176.261719 C -76.011719 176.476562 -75.96875 176.6875 -75.886719 176.886719 C -75.800781 177.085938 -75.683594 177.265625 -75.53125 177.417969 C -75.375 177.570312 -75.199219 177.691406 -74.996094 177.773438 C -74.796875 177.855469 -74.585938 177.898438 -74.371094 177.898438 L 23.066406 177.898438 C 23.539062 178.925781 24.371094 180.480469 26.226562 182.332031 C 28.949219 185.046875 33.542969 187.722656 40.519531 187.722656 C 47.492188 187.722656 52.089844 185.046875 54.808594 182.332031 C 56.664062 180.480469 57.496094 178.925781 57.96875 177.898438 L 155.40625 177.898438 C 155.621094 177.898438 155.832031 177.855469 156.035156 177.773438 C 156.234375 177.691406 156.410156 177.570312 156.566406 177.417969 C 156.71875 177.265625 156.839844 177.085938 156.921875 176.886719 C 157.003906 176.6875 157.046875 176.476562 157.046875 176.261719 L 157.046875 28.859375 C 157.046875 28.546875 156.964844 28.257812 156.796875 27.992188 L 154.265625 23.949219 L 157.046875 23.949219 C 162.476562 23.949219 166.894531 28.355469 166.894531 33.773438 L 166.894531 177.898438 C 166.894531 183.316406 162.476562 187.722656 157.046875 187.722656 L 58.570312 187.722656 C 57.191406 187.722656 55.945312 188.628906 55.476562 189.925781 C 55.359375 190.234375 52.550781 197.550781 40.519531 197.550781 C 28.484375 197.550781 25.675781 190.234375 25.574219 189.964844 C 25.128906 188.625 23.878906 187.722656 22.464844 187.722656 L -76.011719 187.722656 C -81.441406 187.722656 -85.859375 183.316406 -85.859375 177.898438 L -85.859375 33.773438 C -85.859375 28.355469 -81.441406 23.949219 -76.011719 23.949219 Z M 86.042969 24.65625 C 85.949219 24.664062 85.859375 24.675781 85.769531 24.695312 L 76.296875 26.628906 C 76.28125 26.632812 76.265625 26.636719 76.246094 26.640625 C 68.195312 28.554688 61.597656 30.648438 56.367188 32.558594 C 56.160156 32.632812 55.980469 32.746094 55.820312 32.890625 C 55.660156 33.039062 55.53125 33.210938 55.441406 33.40625 C 55.347656 33.605469 55.300781 33.8125 55.289062 34.027344 C 55.28125 34.246094 55.3125 34.457031 55.386719 34.660156 C 55.464844 34.863281 55.574219 35.046875 55.722656 35.207031 C 55.871094 35.367188 56.042969 35.492188 56.238281 35.582031 C 56.4375 35.675781 56.644531 35.726562 56.863281 35.734375 C 57.078125 35.742188 57.289062 35.710938 57.496094 35.636719 C 62.609375 33.769531 69.058594 31.71875 76.953125 29.839844 L 76.976562 29.832031 C 76.988281 29.832031 76.992188 29.828125 77.003906 29.828125 L 86.421875 27.902344 C 86.625 27.863281 86.8125 27.785156 86.984375 27.675781 C 87.160156 27.5625 87.308594 27.425781 87.429688 27.257812 C 87.550781 27.09375 87.636719 26.910156 87.691406 26.710938 C 87.742188 26.511719 87.757812 26.308594 87.734375 26.105469 C 87.710938 25.902344 87.648438 25.707031 87.550781 25.527344 C 87.453125 25.34375 87.328125 25.1875 87.171875 25.050781 C 87.015625 24.917969 86.839844 24.816406 86.644531 24.75 C 86.449219 24.679688 86.25 24.652344 86.042969 24.65625 Z M 4.300781 26.589844 C 4.101562 26.597656 3.910156 26.644531 3.726562 26.722656 C 3.546875 26.800781 3.382812 26.910156 3.238281 27.046875 C 3.09375 27.183594 2.980469 27.34375 2.894531 27.523438 C 2.808594 27.703125 2.757812 27.890625 2.742188 28.089844 C 2.726562 28.289062 2.746094 28.484375 2.800781 28.675781 C 2.855469 28.867188 2.941406 29.042969 3.058594 29.199219 C 3.179688 29.359375 3.320312 29.496094 3.488281 29.601562 C 3.65625 29.710938 3.835938 29.785156 4.03125 29.828125 C 7.578125 30.671875 10.824219 31.546875 13.789062 32.425781 C 14 32.488281 14.210938 32.507812 14.429688 32.484375 C 14.644531 32.460938 14.847656 32.398438 15.039062 32.292969 C 15.230469 32.191406 15.394531 32.054688 15.53125 31.886719 C 15.671875 31.71875 15.769531 31.527344 15.832031 31.320312 C 15.894531 31.113281 15.914062 30.898438 15.890625 30.683594 C 15.867188 30.46875 15.804688 30.265625 15.703125 30.074219 C 15.597656 29.882812 15.460938 29.71875 15.292969 29.582031 C 15.125 29.445312 14.933594 29.34375 14.726562 29.285156 C 11.703125 28.386719 8.390625 27.5 4.789062 26.640625 C 4.628906 26.597656 4.464844 26.582031 4.300781 26.589844 Z M 20.707031 31.304688 C 20.3125 31.328125 19.972656 31.472656 19.683594 31.742188 C 19.394531 32.007812 19.222656 32.339844 19.171875 32.730469 C 19.121094 33.121094 19.203125 33.480469 19.410156 33.8125 C 19.621094 34.148438 19.914062 34.375 20.289062 34.496094 C 21.425781 34.882812 22.523438 35.265625 23.542969 35.636719 C 23.746094 35.710938 23.957031 35.742188 24.175781 35.734375 C 24.390625 35.726562 24.597656 35.675781 24.796875 35.582031 C 24.996094 35.492188 25.167969 35.367188 25.3125 35.207031 C 25.460938 35.046875 25.574219 34.863281 25.648438 34.660156 C 25.722656 34.457031 25.753906 34.246094 25.746094 34.027344 C 25.738281 33.8125 25.6875 33.605469 25.59375 33.40625 C 25.503906 33.210938 25.378906 33.039062 25.214844 32.890625 C 25.054688 32.746094 24.875 32.632812 24.667969 32.558594 C 23.621094 32.175781 22.503906 31.785156 21.355469 31.394531 C 21.144531 31.320312 20.929688 31.289062 20.707031 31.304688 Z M -38.339844 43.601562 C -38.554688 43.601562 -38.761719 43.644531 -38.960938 43.730469 C -39.160156 43.8125 -39.335938 43.929688 -39.488281 44.082031 C -39.640625 44.238281 -39.757812 44.414062 -39.839844 44.609375 C -39.921875 44.808594 -39.964844 45.015625 -39.964844 45.230469 C -39.964844 45.449219 -39.925781 45.65625 -39.84375 45.855469 C -39.761719 46.054688 -39.648438 46.230469 -39.496094 46.382812 C -39.34375 46.539062 -39.171875 46.65625 -38.972656 46.742188 C -38.773438 46.828125 -38.566406 46.871094 -38.351562 46.875 C -25.777344 47.558594 -14.972656 48.957031 -5.738281 50.683594 C -5.519531 50.730469 -5.300781 50.734375 -5.082031 50.695312 C -4.863281 50.65625 -4.660156 50.574219 -4.476562 50.453125 C -4.289062 50.332031 -4.132812 50.175781 -4.011719 49.992188 C -3.886719 49.804688 -3.804688 49.605469 -3.765625 49.386719 C -3.722656 49.167969 -3.726562 48.949219 -3.773438 48.730469 C -3.824219 48.515625 -3.910156 48.316406 -4.042969 48.132812 C -4.171875 47.953125 -4.328125 47.804688 -4.519531 47.6875 C -4.710938 47.574219 -4.914062 47.496094 -5.136719 47.464844 C -14.507812 45.710938 -25.457031 44.289062 -38.171875 43.601562 C -38.226562 43.597656 -38.285156 43.597656 -38.339844 43.601562 Z M 119.207031 43.601562 C 117.757812 43.679688 116.332031 43.769531 114.933594 43.871094 C 114.714844 43.886719 114.507812 43.941406 114.3125 44.039062 C 114.121094 44.136719 113.949219 44.269531 113.808594 44.433594 C 113.664062 44.597656 113.558594 44.78125 113.492188 44.988281 C 113.421875 45.195312 113.398438 45.40625 113.414062 45.621094 C 113.429688 45.839844 113.484375 46.042969 113.582031 46.238281 C 113.679688 46.433594 113.8125 46.601562 113.976562 46.742188 C 114.140625 46.886719 114.328125 46.992188 114.53125 47.058594 C 114.738281 47.128906 114.953125 47.15625 115.167969 47.140625 C 116.550781 47.042969 117.957031 46.953125 119.386719 46.875 C 119.605469 46.863281 119.8125 46.8125 120.007812 46.714844 C 120.203125 46.621094 120.375 46.496094 120.519531 46.332031 C 120.664062 46.171875 120.773438 45.988281 120.847656 45.78125 C 120.917969 45.578125 120.949219 45.367188 120.9375 45.148438 C 120.925781 44.933594 120.871094 44.726562 120.777344 44.53125 C 120.683594 44.335938 120.554688 44.164062 120.394531 44.019531 C 120.230469 43.875 120.046875 43.765625 119.84375 43.691406 C 119.636719 43.621094 119.425781 43.589844 119.207031 43.601562 Z M 107.015625 44.566406 C 106.976562 44.570312 106.9375 44.574219 106.898438 44.578125 C 106.898438 44.578125 97.257812 45.667969 95.828125 45.871094 C 95.609375 45.902344 95.410156 45.972656 95.222656 46.085938 C 95.035156 46.195312 94.875 46.335938 94.746094 46.511719 C 94.613281 46.6875 94.523438 46.878906 94.46875 47.089844 C 94.414062 47.300781 94.402344 47.511719 94.433594 47.726562 C 94.464844 47.941406 94.535156 48.144531 94.648438 48.332031 C 94.757812 48.519531 94.902344 48.675781 95.074219 48.804688 C 95.25 48.9375 95.445312 49.027344 95.65625 49.082031 C 95.867188 49.136719 96.078125 49.148438 96.292969 49.117188 C 97.1875 48.988281 107.269531 47.828125 107.269531 47.828125 C 107.480469 47.804688 107.679688 47.742188 107.863281 47.636719 C 108.046875 47.535156 108.207031 47.402344 108.34375 47.242188 C 108.476562 47.078125 108.574219 46.894531 108.636719 46.695312 C 108.699219 46.492188 108.722656 46.285156 108.707031 46.074219 C 108.691406 45.867188 108.636719 45.664062 108.542969 45.476562 C 108.449219 45.289062 108.320312 45.121094 108.164062 44.980469 C 108.007812 44.839844 107.828125 44.734375 107.628906 44.664062 C 107.429688 44.589844 107.226562 44.558594 107.015625 44.566406 Z M 86.042969 47.585938 C 85.949219 47.589844 85.859375 47.605469 85.769531 47.625 L 76.296875 49.558594 C 76.28125 49.5625 76.265625 49.566406 76.246094 49.570312 C 68.195312 51.484375 61.597656 53.578125 56.367188 55.488281 C 56.160156 55.5625 55.980469 55.671875 55.816406 55.820312 C 55.65625 55.964844 55.53125 56.140625 55.4375 56.335938 C 55.347656 56.53125 55.296875 56.742188 55.289062 56.957031 C 55.277344 57.175781 55.3125 57.386719 55.386719 57.589844 C 55.460938 57.792969 55.570312 57.976562 55.71875 58.136719 C 55.867188 58.296875 56.039062 58.421875 56.238281 58.511719 C 56.4375 58.605469 56.644531 58.65625 56.859375 58.664062 C 57.078125 58.671875 57.289062 58.640625 57.496094 58.566406 C 62.609375 56.699219 69.058594 54.648438 76.953125 52.769531 L 76.976562 52.761719 C 76.988281 52.757812 76.992188 52.757812 77.003906 52.753906 L 86.421875 50.828125 C 86.625 50.789062 86.8125 50.714844 86.984375 50.605469 C 87.160156 50.492188 87.308594 50.355469 87.429688 50.1875 C 87.550781 50.023438 87.636719 49.839844 87.691406 49.640625 C 87.742188 49.441406 87.757812 49.238281 87.734375 49.035156 C 87.710938 48.828125 87.648438 48.636719 87.550781 48.453125 C 87.453125 48.273438 87.328125 48.113281 87.171875 47.980469 C 87.015625 47.847656 86.839844 47.746094 86.644531 47.675781 C 86.449219 47.609375 86.25 47.578125 86.042969 47.585938 Z M 4.300781 49.519531 C 4.101562 49.527344 3.910156 49.570312 3.726562 49.652344 C 3.546875 49.730469 3.382812 49.839844 3.238281 49.976562 C 3.09375 50.113281 2.980469 50.273438 2.894531 50.453125 C 2.808594 50.632812 2.757812 50.820312 2.742188 51.019531 C 2.726562 51.21875 2.746094 51.410156 2.800781 51.601562 C 2.855469 51.792969 2.941406 51.96875 3.058594 52.128906 C 3.179688 52.289062 3.320312 52.421875 3.488281 52.53125 C 3.65625 52.640625 3.835938 52.714844 4.03125 52.753906 C 7.578125 53.601562 10.824219 54.472656 13.789062 55.351562 C 14 55.414062 14.210938 55.433594 14.429688 55.414062 C 14.644531 55.390625 14.847656 55.328125 15.039062 55.222656 C 15.230469 55.121094 15.394531 54.984375 15.53125 54.816406 C 15.671875 54.644531 15.769531 54.457031 15.832031 54.25 C 15.894531 54.042969 15.914062 53.828125 15.890625 53.613281 C 15.867188 53.398438 15.804688 53.191406 15.703125 53.003906 C 15.597656 52.8125 15.460938 52.648438 15.292969 52.511719 C 15.125 52.375 14.933594 52.273438 14.726562 52.210938 C 11.703125 51.316406 8.390625 50.429688 4.789062 49.570312 C 4.628906 49.527344 4.464844 49.511719 4.300781 49.519531 Z M 20.707031 54.234375 C 20.3125 54.253906 19.972656 54.402344 19.683594 54.667969 C 19.394531 54.9375 19.222656 55.265625 19.171875 55.65625 C 19.121094 56.046875 19.203125 56.410156 19.410156 56.742188 C 19.621094 57.074219 19.914062 57.304688 20.289062 57.425781 C 21.425781 57.8125 22.523438 58.191406 23.542969 58.566406 C 23.746094 58.640625 23.957031 58.671875 24.175781 58.664062 C 24.390625 58.65625 24.601562 58.605469 24.796875 58.511719 C 24.996094 58.421875 25.167969 58.296875 25.316406 58.136719 C 25.464844 57.976562 25.574219 57.792969 25.648438 57.589844 C 25.726562 57.386719 25.757812 57.175781 25.75 56.957031 C 25.738281 56.742188 25.6875 56.53125 25.597656 56.335938 C 25.503906 56.140625 25.378906 55.964844 25.21875 55.820312 C 25.058594 55.671875 24.875 55.5625 24.667969 55.488281 C 23.621094 55.105469 22.503906 54.714844 21.355469 54.324219 C 21.144531 54.25 20.929688 54.21875 20.707031 54.234375 Z M -38.339844 66.53125 C -38.554688 66.53125 -38.761719 66.574219 -38.960938 66.65625 C -39.160156 66.742188 -39.335938 66.859375 -39.488281 67.011719 C -39.640625 67.164062 -39.757812 67.339844 -39.839844 67.539062 C -39.921875 67.738281 -39.964844 67.945312 -39.964844 68.160156 C -39.964844 68.375 -39.925781 68.582031 -39.84375 68.78125 C -39.761719 68.984375 -39.648438 69.160156 -39.496094 69.3125 C -39.34375 69.46875 -39.171875 69.585938 -38.972656 69.671875 C -38.773438 69.757812 -38.566406 69.800781 -38.351562 69.804688 C -25.777344 70.484375 -14.972656 71.886719 -5.738281 73.613281 C -5.519531 73.660156 -5.300781 73.664062 -5.082031 73.625 C -4.863281 73.585938 -4.660156 73.503906 -4.476562 73.382812 C -4.289062 73.257812 -4.132812 73.105469 -4.011719 72.921875 C -3.886719 72.734375 -3.804688 72.535156 -3.765625 72.316406 C -3.722656 72.097656 -3.726562 71.878906 -3.773438 71.660156 C -3.824219 71.445312 -3.910156 71.246094 -4.042969 71.0625 C -4.171875 70.882812 -4.328125 70.734375 -4.519531 70.617188 C -4.710938 70.5 -4.914062 70.425781 -5.136719 70.394531 C -14.507812 68.640625 -25.457031 67.21875 -38.171875 66.53125 C -38.226562 66.527344 -38.285156 66.527344 -38.339844 66.53125 Z M 119.207031 66.53125 C 117.757812 66.609375 116.332031 66.699219 114.933594 66.796875 C 114.714844 66.8125 114.507812 66.871094 114.3125 66.96875 C 114.117188 67.0625 113.949219 67.195312 113.804688 67.359375 C 113.664062 67.523438 113.558594 67.710938 113.488281 67.917969 C 113.417969 68.121094 113.394531 68.335938 113.410156 68.550781 C 113.425781 68.769531 113.480469 68.972656 113.578125 69.167969 C 113.675781 69.363281 113.808594 69.53125 113.972656 69.671875 C 114.140625 69.816406 114.324219 69.921875 114.53125 69.988281 C 114.738281 70.058594 114.953125 70.082031 115.167969 70.066406 C 116.550781 69.96875 117.957031 69.882812 119.386719 69.804688 C 119.605469 69.792969 119.8125 69.742188 120.007812 69.644531 C 120.207031 69.550781 120.375 69.425781 120.523438 69.261719 C 120.667969 69.101562 120.777344 68.917969 120.847656 68.710938 C 120.921875 68.507812 120.949219 68.296875 120.9375 68.078125 C 120.925781 67.859375 120.875 67.652344 120.78125 67.457031 C 120.683594 67.261719 120.558594 67.089844 120.394531 66.945312 C 120.234375 66.800781 120.046875 66.691406 119.84375 66.621094 C 119.636719 66.546875 119.425781 66.519531 119.207031 66.53125 Z M 107.015625 67.496094 C 106.976562 67.5 106.9375 67.503906 106.898438 67.507812 C 106.898438 67.507812 97.257812 68.59375 95.828125 68.800781 C 95.609375 68.832031 95.410156 68.902344 95.222656 69.011719 C 95.035156 69.125 94.875 69.265625 94.746094 69.441406 C 94.613281 69.613281 94.523438 69.808594 94.46875 70.015625 C 94.414062 70.226562 94.402344 70.441406 94.433594 70.65625 C 94.464844 70.871094 94.535156 71.074219 94.648438 71.257812 C 94.757812 71.445312 94.902344 71.605469 95.074219 71.734375 C 95.25 71.867188 95.445312 71.957031 95.65625 72.011719 C 95.867188 72.0625 96.078125 72.074219 96.292969 72.042969 C 97.1875 71.914062 107.269531 70.757812 107.269531 70.757812 C 107.480469 70.734375 107.679688 70.667969 107.863281 70.566406 C 108.046875 70.464844 108.207031 70.332031 108.34375 70.167969 C 108.476562 70.007812 108.574219 69.824219 108.636719 69.621094 C 108.699219 69.421875 108.722656 69.214844 108.707031 69.003906 C 108.691406 68.792969 108.636719 68.59375 108.542969 68.40625 C 108.449219 68.214844 108.320312 68.050781 108.164062 67.910156 C 108.007812 67.769531 107.828125 67.664062 107.628906 67.59375 C 107.429688 67.519531 107.226562 67.488281 107.015625 67.496094 Z M 86.042969 70.515625 C 85.949219 70.519531 85.859375 70.53125 85.769531 70.554688 L 76.296875 72.484375 C 76.28125 72.488281 76.265625 72.492188 76.246094 72.5 C 68.195312 74.414062 61.597656 76.507812 56.367188 78.417969 C 56.160156 78.492188 55.980469 78.601562 55.816406 78.75 C 55.65625 78.894531 55.53125 79.066406 55.4375 79.265625 C 55.347656 79.460938 55.296875 79.667969 55.289062 79.886719 C 55.277344 80.105469 55.3125 80.3125 55.386719 80.519531 C 55.460938 80.722656 55.570312 80.90625 55.71875 81.066406 C 55.867188 81.226562 56.039062 81.351562 56.238281 81.441406 C 56.4375 81.535156 56.644531 81.582031 56.859375 81.59375 C 57.078125 81.601562 57.289062 81.570312 57.496094 81.492188 C 62.609375 79.628906 69.058594 77.578125 76.953125 75.695312 L 76.976562 75.691406 C 76.988281 75.6875 76.992188 75.6875 77.003906 75.683594 L 86.421875 73.757812 C 86.625 73.71875 86.8125 73.644531 86.984375 73.53125 C 87.160156 73.421875 87.308594 73.28125 87.429688 73.117188 C 87.550781 72.949219 87.636719 72.765625 87.691406 72.566406 C 87.742188 72.367188 87.757812 72.167969 87.734375 71.960938 C 87.710938 71.757812 87.648438 71.566406 87.550781 71.382812 C 87.453125 71.203125 87.328125 71.042969 87.171875 70.910156 C 87.015625 70.773438 86.839844 70.675781 86.644531 70.605469 C 86.449219 70.539062 86.25 70.507812 86.042969 70.515625 Z M 4.300781 72.449219 C 4.101562 72.457031 3.910156 72.5 3.726562 72.578125 C 3.546875 72.660156 3.382812 72.765625 3.238281 72.90625 C 3.09375 73.042969 2.980469 73.203125 2.894531 73.382812 C 2.808594 73.5625 2.757812 73.75 2.742188 73.949219 C 2.726562 74.144531 2.746094 74.339844 2.800781 74.53125 C 2.855469 74.722656 2.941406 74.898438 3.058594 75.058594 C 3.179688 75.21875 3.320312 75.351562 3.488281 75.460938 C 3.65625 75.566406 3.835938 75.640625 4.03125 75.683594 C 7.578125 76.527344 10.824219 77.402344 13.789062 78.28125 C 14 78.34375 14.210938 78.363281 14.429688 78.339844 C 14.644531 78.320312 14.847656 78.253906 15.039062 78.152344 C 15.230469 78.046875 15.394531 77.914062 15.53125 77.742188 C 15.671875 77.574219 15.769531 77.386719 15.832031 77.179688 C 15.894531 76.96875 15.914062 76.757812 15.890625 76.542969 C 15.867188 76.324219 15.804688 76.121094 15.703125 75.929688 C 15.597656 75.738281 15.460938 75.574219 15.292969 75.4375 C 15.125 75.300781 14.933594 75.203125 14.726562 75.140625 C 11.703125 74.246094 8.390625 73.355469 4.789062 72.5 C 4.628906 72.457031 4.464844 72.441406 4.300781 72.449219 Z M 20.707031 77.164062 C 20.3125 77.183594 19.972656 77.328125 19.683594 77.597656 C 19.394531 77.867188 19.222656 78.195312 19.171875 78.585938 C 19.121094 78.976562 19.203125 79.339844 19.410156 79.671875 C 19.621094 80.003906 19.914062 80.230469 20.289062 80.355469 C 21.425781 80.742188 22.523438 81.121094 23.542969 81.492188 C 23.746094 81.570312 23.957031 81.601562 24.175781 81.59375 C 24.390625 81.582031 24.601562 81.535156 24.796875 81.441406 C 24.996094 81.351562 25.167969 81.226562 25.316406 81.066406 C 25.464844 80.90625 25.574219 80.722656 25.648438 80.519531 C 25.726562 80.3125 25.757812 80.105469 25.75 79.886719 C 25.738281 79.667969 25.6875 79.460938 25.597656 79.265625 C 25.503906 79.066406 25.378906 78.894531 25.21875 78.75 C 25.058594 78.601562 24.875 78.492188 24.667969 78.417969 C 23.621094 78.035156 22.503906 77.644531 21.355469 77.25 C 21.144531 77.179688 20.929688 77.148438 20.707031 77.164062 Z M -38.339844 89.457031 C -38.554688 89.460938 -38.761719 89.503906 -38.960938 89.585938 C -39.160156 89.671875 -39.335938 89.789062 -39.488281 89.941406 C -39.640625 90.09375 -39.757812 90.269531 -39.839844 90.46875 C -39.921875 90.667969 -39.964844 90.875 -39.964844 91.089844 C -39.964844 91.304688 -39.925781 91.511719 -39.84375 91.710938 C -39.761719 91.910156 -39.648438 92.089844 -39.496094 92.242188 C -39.34375 92.394531 -39.171875 92.515625 -38.972656 92.601562 C -38.773438 92.6875 -38.566406 92.730469 -38.351562 92.734375 C -25.777344 93.414062 -14.972656 94.8125 -5.738281 96.539062 C -5.519531 96.589844 -5.300781 96.59375 -5.082031 96.554688 C -4.863281 96.515625 -4.660156 96.433594 -4.476562 96.308594 C -4.289062 96.1875 -4.132812 96.035156 -4.011719 95.847656 C -3.886719 95.664062 -3.804688 95.460938 -3.765625 95.242188 C -3.722656 95.023438 -3.726562 94.808594 -3.773438 94.589844 C -3.824219 94.371094 -3.910156 94.171875 -4.042969 93.992188 C -4.171875 93.8125 -4.328125 93.664062 -4.519531 93.546875 C -4.710938 93.429688 -4.914062 93.355469 -5.136719 93.324219 C -14.507812 91.570312 -25.457031 90.148438 -38.171875 89.457031 C -38.226562 89.457031 -38.285156 89.457031 -38.339844 89.457031 Z M 119.207031 89.457031 C 117.757812 89.539062 116.332031 89.628906 114.933594 89.726562 C 114.714844 89.742188 114.507812 89.800781 114.3125 89.898438 C 114.121094 89.996094 113.949219 90.125 113.808594 90.289062 C 113.664062 90.453125 113.558594 90.640625 113.492188 90.84375 C 113.421875 91.050781 113.398438 91.261719 113.414062 91.480469 C 113.429688 91.695312 113.484375 91.902344 113.582031 92.097656 C 113.679688 92.289062 113.8125 92.457031 113.976562 92.601562 C 114.140625 92.742188 114.328125 92.847656 114.53125 92.917969 C 114.738281 92.984375 114.953125 93.011719 115.167969 92.996094 C 116.550781 92.898438 117.957031 92.8125 119.386719 92.734375 C 119.605469 92.722656 119.8125 92.667969 120.007812 92.574219 C 120.207031 92.480469 120.375 92.351562 120.523438 92.191406 C 120.667969 92.027344 120.777344 91.84375 120.847656 91.640625 C 120.921875 91.433594 120.949219 91.222656 120.9375 91.007812 C 120.925781 90.789062 120.875 90.582031 120.78125 90.386719 C 120.683594 90.191406 120.558594 90.019531 120.394531 89.875 C 120.234375 89.730469 120.046875 89.621094 119.84375 89.546875 C 119.636719 89.476562 119.425781 89.445312 119.207031 89.457031 Z M 107.015625 90.425781 C 106.976562 90.425781 106.9375 90.429688 106.898438 90.4375 C 106.898438 90.4375 97.257812 91.523438 95.828125 91.730469 C 95.609375 91.761719 95.410156 91.832031 95.222656 91.941406 C 95.035156 92.050781 94.875 92.195312 94.746094 92.367188 C 94.613281 92.542969 94.523438 92.734375 94.46875 92.945312 C 94.414062 93.15625 94.402344 93.371094 94.433594 93.585938 C 94.464844 93.800781 94.535156 94 94.648438 94.1875 C 94.757812 94.375 94.902344 94.535156 95.074219 94.664062 C 95.25 94.792969 95.445312 94.886719 95.65625 94.9375 C 95.867188 94.992188 96.078125 95.003906 96.292969 94.972656 C 97.1875 94.84375 107.269531 93.6875 107.269531 93.6875 C 107.480469 93.660156 107.679688 93.597656 107.863281 93.496094 C 108.046875 93.394531 108.207031 93.261719 108.34375 93.097656 C 108.476562 92.933594 108.574219 92.753906 108.636719 92.550781 C 108.699219 92.347656 108.722656 92.144531 108.707031 91.933594 C 108.691406 91.722656 108.636719 91.523438 108.542969 91.332031 C 108.449219 91.144531 108.320312 90.980469 108.164062 90.839844 C 108.007812 90.699219 107.828125 90.59375 107.628906 90.519531 C 107.429688 90.449219 107.226562 90.417969 107.015625 90.425781 Z M 86.042969 93.445312 C 85.949219 93.449219 85.859375 93.460938 85.769531 93.480469 L 76.296875 95.414062 C 76.28125 95.417969 76.265625 95.421875 76.246094 95.425781 C 68.195312 97.34375 61.597656 99.433594 56.367188 101.34375 C 56.160156 101.417969 55.980469 101.53125 55.816406 101.675781 C 55.65625 101.824219 55.53125 101.996094 55.4375 102.191406 C 55.347656 102.390625 55.296875 102.597656 55.289062 102.816406 C 55.277344 103.03125 55.3125 103.242188 55.386719 103.449219 C 55.460938 103.652344 55.570312 103.832031 55.71875 103.992188 C 55.867188 104.152344 56.039062 104.28125 56.238281 104.371094 C 56.4375 104.460938 56.644531 104.511719 56.859375 104.519531 C 57.078125 104.53125 57.289062 104.496094 57.496094 104.421875 C 62.609375 102.554688 69.058594 100.507812 76.953125 98.625 L 76.976562 98.621094 C 76.988281 98.617188 76.992188 98.617188 77.003906 98.613281 L 86.421875 96.6875 C 86.625 96.648438 86.8125 96.570312 86.984375 96.460938 C 87.160156 96.351562 87.308594 96.210938 87.429688 96.046875 C 87.550781 95.878906 87.636719 95.695312 87.691406 95.496094 C 87.742188 95.296875 87.757812 95.097656 87.734375 94.890625 C 87.710938 94.6875 87.648438 94.492188 87.550781 94.3125 C 87.453125 94.128906 87.328125 93.972656 87.171875 93.839844 C 87.015625 93.703125 86.839844 93.601562 86.644531 93.535156 C 86.449219 93.46875 86.25 93.4375 86.042969 93.445312 Z M 4.300781 95.375 C 4.101562 95.386719 3.910156 95.429688 3.726562 95.507812 C 3.546875 95.585938 3.382812 95.695312 3.238281 95.832031 C 3.09375 95.972656 2.980469 96.128906 2.894531 96.308594 C 2.808594 96.488281 2.757812 96.679688 2.742188 96.875 C 2.726562 97.074219 2.746094 97.269531 2.800781 97.460938 C 2.855469 97.652344 2.941406 97.828125 3.058594 97.988281 C 3.179688 98.148438 3.320312 98.28125 3.488281 98.386719 C 3.65625 98.496094 3.835938 98.570312 4.03125 98.613281 C 7.578125 99.457031 10.824219 100.332031 13.789062 101.210938 C 14 101.273438 14.210938 101.292969 14.429688 101.269531 C 14.644531 101.246094 14.847656 101.183594 15.039062 101.082031 C 15.230469 100.976562 15.394531 100.839844 15.53125 100.671875 C 15.671875 100.503906 15.769531 100.316406 15.832031 100.105469 C 15.894531 99.898438 15.914062 99.6875 15.890625 99.46875 C 15.867188 99.253906 15.804688 99.050781 15.703125 98.859375 C 15.597656 98.667969 15.460938 98.503906 15.292969 98.367188 C 15.125 98.230469 14.933594 98.132812 14.726562 98.070312 C 11.703125 97.171875 8.390625 96.285156 4.789062 95.425781 C 4.628906 95.386719 4.464844 95.367188 4.300781 95.375 Z M 20.707031 100.089844 C 20.3125 100.113281 19.972656 100.257812 19.683594 100.527344 C 19.394531 100.792969 19.222656 101.125 19.171875 101.515625 C 19.121094 101.90625 19.203125 102.265625 19.410156 102.601562 C 19.621094 102.933594 19.914062 103.160156 20.289062 103.285156 C 21.425781 103.671875 22.523438 104.050781 23.542969 104.421875 C 23.746094 104.496094 23.957031 104.53125 24.175781 104.519531 C 24.390625 104.511719 24.601562 104.460938 24.796875 104.371094 C 24.996094 104.28125 25.167969 104.152344 25.316406 103.992188 C 25.464844 103.832031 25.574219 103.652344 25.648438 103.449219 C 25.726562 103.242188 25.757812 103.03125 25.75 102.816406 C 25.738281 102.597656 25.6875 102.390625 25.597656 102.191406 C 25.503906 101.996094 25.378906 101.824219 25.21875 101.675781 C 25.058594 101.53125 24.875 101.417969 24.667969 101.34375 C 23.621094 100.964844 22.503906 100.574219 21.355469 100.179688 C 21.144531 100.105469 20.929688 100.078125 20.707031 100.089844 Z M -38.339844 112.386719 C -38.554688 112.390625 -38.761719 112.433594 -38.960938 112.515625 C -39.160156 112.597656 -39.335938 112.71875 -39.488281 112.871094 C -39.640625 113.023438 -39.757812 113.199219 -39.839844 113.398438 C -39.921875 113.597656 -39.964844 113.804688 -39.964844 114.019531 C -39.964844 114.234375 -39.925781 114.441406 -39.84375 114.640625 C -39.761719 114.839844 -39.648438 115.015625 -39.496094 115.171875 C -39.34375 115.324219 -39.171875 115.445312 -38.972656 115.527344 C -38.773438 115.613281 -38.566406 115.660156 -38.351562 115.664062 C -25.777344 116.34375 -14.972656 117.742188 -5.738281 119.46875 C -5.519531 119.519531 -5.300781 119.523438 -5.082031 119.480469 C -4.863281 119.441406 -4.660156 119.359375 -4.476562 119.238281 C -4.289062 119.117188 -4.132812 118.960938 -4.011719 118.777344 C -3.886719 118.59375 -3.804688 118.390625 -3.765625 118.171875 C -3.722656 117.953125 -3.726562 117.734375 -3.773438 117.519531 C -3.824219 117.300781 -3.910156 117.101562 -4.042969 116.921875 C -4.171875 116.738281 -4.328125 116.589844 -4.519531 116.476562 C -4.710938 116.359375 -4.914062 116.285156 -5.136719 116.25 C -14.507812 114.5 -25.457031 113.074219 -38.171875 112.386719 C -38.226562 112.382812 -38.285156 112.382812 -38.339844 112.386719 Z M 119.207031 112.386719 C 117.757812 112.464844 116.332031 112.558594 114.933594 112.65625 C 114.714844 112.671875 114.507812 112.726562 114.3125 112.824219 C 114.117188 112.921875 113.949219 113.050781 113.804688 113.21875 C 113.664062 113.382812 113.558594 113.566406 113.488281 113.773438 C 113.417969 113.980469 113.394531 114.191406 113.410156 114.410156 C 113.425781 114.625 113.480469 114.832031 113.578125 115.027344 C 113.675781 115.21875 113.808594 115.390625 113.972656 115.53125 C 114.140625 115.671875 114.324219 115.777344 114.53125 115.847656 C 114.738281 115.914062 114.953125 115.941406 115.167969 115.925781 C 116.550781 115.828125 117.957031 115.742188 119.386719 115.664062 C 119.605469 115.652344 119.8125 115.597656 120.007812 115.503906 C 120.207031 115.410156 120.375 115.28125 120.523438 115.121094 C 120.667969 114.957031 120.777344 114.773438 120.847656 114.570312 C 120.921875 114.363281 120.949219 114.152344 120.9375 113.933594 C 120.925781 113.71875 120.875 113.511719 120.78125 113.316406 C 120.683594 113.121094 120.558594 112.949219 120.394531 112.804688 C 120.234375 112.65625 120.046875 112.550781 119.84375 112.476562 C 119.636719 112.40625 119.425781 112.375 119.207031 112.386719 Z M 107.015625 113.351562 C 106.976562 113.355469 106.9375 113.359375 106.898438 113.367188 C 106.898438 113.367188 97.257812 114.453125 95.828125 114.65625 C 95.609375 114.6875 95.410156 114.757812 95.222656 114.871094 C 95.035156 114.980469 94.875 115.125 94.746094 115.296875 C 94.613281 115.472656 94.523438 115.664062 94.46875 115.875 C 94.414062 116.085938 94.402344 116.296875 94.433594 116.511719 C 94.464844 116.730469 94.535156 116.929688 94.648438 117.117188 C 94.757812 117.304688 94.902344 117.460938 95.074219 117.59375 C 95.25 117.722656 95.445312 117.816406 95.65625 117.867188 C 95.867188 117.921875 96.078125 117.933594 96.292969 117.902344 C 97.1875 117.773438 107.269531 116.617188 107.269531 116.617188 C 107.480469 116.589844 107.679688 116.527344 107.863281 116.425781 C 108.046875 116.324219 108.207031 116.191406 108.34375 116.027344 C 108.476562 115.863281 108.574219 115.679688 108.636719 115.480469 C 108.699219 115.277344 108.722656 115.074219 108.707031 114.863281 C 108.691406 114.652344 108.636719 114.453125 108.542969 114.261719 C 108.449219 114.074219 108.320312 113.910156 108.164062 113.769531 C 108.007812 113.628906 107.828125 113.519531 107.628906 113.449219 C 107.429688 113.378906 107.226562 113.34375 107.015625 113.351562 Z M 86.042969 116.371094 C 85.949219 116.378906 85.859375 116.390625 85.769531 116.410156 L 76.296875 118.34375 C 76.28125 118.347656 76.265625 118.351562 76.246094 118.355469 C 68.195312 120.269531 61.597656 122.363281 56.367188 124.273438 C 56.160156 124.347656 55.980469 124.457031 55.816406 124.605469 C 55.65625 124.753906 55.53125 124.925781 55.4375 125.121094 C 55.347656 125.320312 55.296875 125.527344 55.289062 125.742188 C 55.277344 125.960938 55.3125 126.171875 55.386719 126.375 C 55.460938 126.582031 55.570312 126.761719 55.71875 126.921875 C 55.867188 127.082031 56.039062 127.207031 56.238281 127.300781 C 56.4375 127.390625 56.644531 127.441406 56.859375 127.449219 C 57.078125 127.457031 57.289062 127.425781 57.496094 127.351562 C 62.609375 125.484375 69.058594 123.433594 76.953125 121.554688 L 76.976562 121.546875 C 76.988281 121.546875 76.992188 121.542969 77.003906 121.542969 L 86.421875 119.617188 C 86.625 119.574219 86.8125 119.5 86.984375 119.390625 C 87.160156 119.277344 87.308594 119.140625 87.429688 118.972656 C 87.550781 118.808594 87.636719 118.625 87.691406 118.425781 C 87.742188 118.226562 87.757812 118.023438 87.734375 117.820312 C 87.710938 117.617188 87.648438 117.421875 87.550781 117.242188 C 87.453125 117.058594 87.328125 116.902344 87.171875 116.765625 C 87.015625 116.632812 86.839844 116.53125 86.644531 116.464844 C 86.449219 116.394531 86.25 116.367188 86.042969 116.371094 Z M 4.300781 118.304688 C 4.101562 118.3125 3.910156 118.359375 3.726562 118.4375 C 3.546875 118.515625 3.382812 118.625 3.238281 118.761719 C 3.09375 118.898438 2.980469 119.058594 2.894531 119.238281 C 2.808594 119.417969 2.757812 119.605469 2.742188 119.804688 C 2.726562 120.003906 2.746094 120.199219 2.800781 120.390625 C 2.855469 120.582031 2.941406 120.757812 3.058594 120.914062 C 3.179688 121.074219 3.320312 121.210938 3.488281 121.316406 C 3.65625 121.425781 3.835938 121.5 4.03125 121.542969 C 7.578125 122.386719 10.824219 123.261719 13.789062 124.140625 C 14 124.199219 14.210938 124.222656 14.429688 124.199219 C 14.644531 124.175781 14.847656 124.113281 15.039062 124.007812 C 15.230469 123.90625 15.394531 123.769531 15.53125 123.601562 C 15.671875 123.433594 15.769531 123.242188 15.832031 123.035156 C 15.894531 122.828125 15.914062 122.613281 15.890625 122.398438 C 15.867188 122.183594 15.804688 121.980469 15.703125 121.789062 C 15.597656 121.597656 15.460938 121.433594 15.292969 121.296875 C 15.125 121.160156 14.933594 121.058594 14.726562 121 C 11.703125 120.101562 8.390625 119.214844 4.789062 118.355469 C 4.628906 118.3125 4.464844 118.296875 4.300781 118.304688 Z M 20.707031 123.019531 C 20.3125 123.042969 19.972656 123.1875 19.683594 123.457031 C 19.394531 123.722656 19.222656 124.054688 19.171875 124.445312 C 19.121094 124.835938 19.203125 125.195312 19.410156 125.527344 C 19.621094 125.863281 19.914062 126.089844 20.289062 126.210938 C 21.425781 126.597656 22.523438 126.980469 23.542969 127.351562 C 23.746094 127.425781 23.957031 127.457031 24.175781 127.449219 C 24.390625 127.441406 24.601562 127.390625 24.796875 127.300781 C 24.996094 127.207031 25.167969 127.082031 25.316406 126.921875 C 25.464844 126.761719 25.574219 126.582031 25.648438 126.375 C 25.726562 126.171875 25.757812 125.960938 25.75 125.742188 C 25.738281 125.527344 25.6875 125.320312 25.597656 125.121094 C 25.503906 124.925781 25.378906 124.753906 25.21875 124.605469 C 25.058594 124.457031 24.875 124.347656 24.667969 124.273438 C 23.621094 123.890625 22.503906 123.5 21.355469 123.109375 C 21.144531 123.035156 20.929688 123.003906 20.707031 123.019531 Z M -38.339844 135.316406 C -38.554688 135.316406 -38.761719 135.359375 -38.960938 135.445312 C -39.160156 135.527344 -39.335938 135.644531 -39.488281 135.796875 C -39.640625 135.953125 -39.757812 136.128906 -39.839844 136.324219 C -39.921875 136.523438 -39.964844 136.730469 -39.964844 136.945312 C -39.964844 137.164062 -39.925781 137.371094 -39.84375 137.570312 C -39.761719 137.769531 -39.648438 137.945312 -39.496094 138.097656 C -39.34375 138.253906 -39.171875 138.371094 -38.972656 138.457031 C -38.773438 138.542969 -38.566406 138.585938 -38.351562 138.589844 C -25.777344 139.273438 -14.972656 140.671875 -5.738281 142.398438 C -5.519531 142.445312 -5.300781 142.449219 -5.082031 142.410156 C -4.863281 142.371094 -4.660156 142.289062 -4.476562 142.167969 C -4.289062 142.046875 -4.132812 141.890625 -4.011719 141.707031 C -3.886719 141.519531 -3.804688 141.320312 -3.765625 141.101562 C -3.722656 140.882812 -3.726562 140.664062 -3.773438 140.445312 C -3.824219 140.230469 -3.910156 140.03125 -4.042969 139.847656 C -4.171875 139.667969 -4.328125 139.519531 -4.519531 139.402344 C -4.710938 139.289062 -4.914062 139.210938 -5.136719 139.179688 C -14.507812 137.425781 -25.457031 136.003906 -38.171875 135.316406 C -38.226562 135.3125 -38.285156 135.3125 -38.339844 135.316406 Z M 119.207031 135.316406 C 117.757812 135.394531 116.332031 135.484375 114.933594 135.585938 C 114.714844 135.601562 114.507812 135.65625 114.3125 135.753906 C 114.117188 135.851562 113.949219 135.980469 113.804688 136.144531 C 113.664062 136.308594 113.558594 136.496094 113.488281 136.703125 C 113.417969 136.910156 113.394531 137.121094 113.410156 137.335938 C 113.425781 137.554688 113.480469 137.761719 113.578125 137.953125 C 113.675781 138.148438 113.808594 138.316406 113.972656 138.460938 C 114.140625 138.601562 114.324219 138.707031 114.53125 138.777344 C 114.738281 138.84375 114.953125 138.871094 115.167969 138.855469 C 116.550781 138.757812 117.957031 138.667969 119.386719 138.589844 C 119.605469 138.578125 119.8125 138.527344 120.007812 138.433594 C 120.207031 138.339844 120.375 138.210938 120.523438 138.046875 C 120.667969 137.886719 120.777344 137.703125 120.847656 137.496094 C 120.921875 137.292969 120.949219 137.082031 120.9375 136.863281 C 120.925781 136.648438 120.875 136.441406 120.78125 136.242188 C 120.683594 136.046875 120.558594 135.878906 120.394531 135.730469 C 120.234375 135.585938 120.046875 135.476562 119.84375 135.40625 C 119.636719 135.332031 119.425781 135.304688 119.207031 135.316406 Z M 107.015625 136.28125 C 106.976562 136.285156 106.9375 136.289062 106.898438 136.292969 C 106.898438 136.292969 97.257812 137.382812 95.828125 137.585938 C 95.609375 137.617188 95.410156 137.6875 95.222656 137.800781 C 95.035156 137.910156 94.875 138.050781 94.746094 138.226562 C 94.613281 138.402344 94.523438 138.59375 94.46875 138.804688 C 94.414062 139.015625 94.402344 139.226562 94.433594 139.441406 C 94.464844 139.65625 94.535156 139.859375 94.648438 140.046875 C 94.757812 140.234375 94.902344 140.390625 95.074219 140.519531 C 95.25 140.652344 95.445312 140.742188 95.65625 140.796875 C 95.867188 140.851562 96.078125 140.863281 96.292969 140.832031 C 97.1875 140.703125 107.269531 139.542969 107.269531 139.542969 C 107.480469 139.519531 107.679688 139.457031 107.863281 139.351562 C 108.046875 139.25 108.207031 139.117188 108.34375 138.957031 C 108.476562 138.792969 108.574219 138.609375 108.636719 138.410156 C 108.699219 138.207031 108.722656 138 108.707031 137.789062 C 108.691406 137.582031 108.636719 137.378906 108.542969 137.191406 C 108.449219 137.003906 108.320312 136.835938 108.164062 136.695312 C 108.007812 136.554688 107.828125 136.449219 107.628906 136.378906 C 107.429688 136.304688 107.226562 136.273438 107.015625 136.28125 Z M 86.042969 139.300781 C 85.949219 139.304688 85.859375 139.320312 85.769531 139.339844 L 76.296875 141.273438 C 76.28125 141.277344 76.265625 141.28125 76.246094 141.285156 C 68.195312 143.199219 61.597656 145.292969 56.367188 147.203125 C 56.160156 147.277344 55.980469 147.386719 55.820312 147.535156 C 55.660156 147.683594 55.53125 147.855469 55.441406 148.050781 C 55.347656 148.25 55.300781 148.457031 55.289062 148.671875 C 55.28125 148.890625 55.3125 149.101562 55.386719 149.304688 C 55.464844 149.507812 55.574219 149.691406 55.722656 149.851562 C 55.871094 150.011719 56.042969 150.136719 56.238281 150.226562 C 56.4375 150.320312 56.644531 150.367188 56.863281 150.378906 C 57.078125 150.386719 57.289062 150.355469 57.496094 150.28125 C 62.609375 148.414062 69.058594 146.363281 76.953125 144.484375 L 76.976562 144.476562 C 76.988281 144.472656 76.992188 144.472656 77.003906 144.46875 L 86.421875 142.542969 C 86.625 142.503906 86.8125 142.429688 86.984375 142.320312 C 87.160156 142.207031 87.308594 142.070312 87.429688 141.902344 C 87.550781 141.734375 87.636719 141.554688 87.691406 141.355469 C 87.742188 141.15625 87.757812 140.953125 87.734375 140.75 C 87.710938 140.542969 87.648438 140.351562 87.550781 140.167969 C 87.453125 139.988281 87.328125 139.828125 87.171875 139.695312 C 87.015625 139.5625 86.839844 139.460938 86.644531 139.390625 C 86.449219 139.324219 86.25 139.292969 86.042969 139.300781 Z M 4.300781 141.234375 C 4.101562 141.242188 3.910156 141.285156 3.726562 141.367188 C 3.546875 141.445312 3.382812 141.554688 3.238281 141.691406 C 3.09375 141.828125 2.980469 141.988281 2.894531 142.167969 C 2.808594 142.347656 2.757812 142.535156 2.742188 142.734375 C 2.726562 142.933594 2.746094 143.125 2.800781 143.316406 C 2.855469 143.507812 2.941406 143.683594 3.058594 143.84375 C 3.179688 144.003906 3.320312 144.136719 3.488281 144.246094 C 3.65625 144.355469 3.835938 144.429688 4.03125 144.46875 C 7.578125 145.316406 10.824219 146.1875 13.789062 147.066406 C 14 147.128906 14.210938 147.152344 14.429688 147.128906 C 14.644531 147.105469 14.851562 147.042969 15.042969 146.941406 C 15.234375 146.835938 15.398438 146.699219 15.535156 146.53125 C 15.671875 146.363281 15.773438 146.175781 15.835938 145.964844 C 15.898438 145.757812 15.917969 145.542969 15.894531 145.328125 C 15.871094 145.113281 15.808594 144.90625 15.703125 144.714844 C 15.601562 144.523438 15.464844 144.359375 15.292969 144.222656 C 15.125 144.085938 14.933594 143.988281 14.726562 143.925781 C 11.703125 143.03125 8.390625 142.144531 4.789062 141.285156 C 4.628906 141.242188 4.464844 141.226562 4.300781 141.234375 Z M 40.492188 141.839844 C 40.273438 141.84375 40.066406 141.890625 39.867188 141.976562 C 39.667969 142.0625 39.492188 142.183594 39.339844 142.339844 C 39.1875 142.496094 39.070312 142.675781 38.992188 142.875 C 38.910156 143.078125 38.875 143.289062 38.875 143.503906 L 38.875 150.054688 C 38.875 150.273438 38.914062 150.484375 38.996094 150.6875 C 39.078125 150.894531 39.195312 151.074219 39.347656 151.230469 C 39.503906 151.382812 39.683594 151.503906 39.882812 151.589844 C 40.085938 151.675781 40.296875 151.714844 40.519531 151.714844 C 40.738281 151.714844 40.949219 151.675781 41.152344 151.589844 C 41.355469 151.503906 41.53125 151.382812 41.6875 151.230469 C 41.839844 151.074219 41.960938 150.894531 42.039062 150.6875 C 42.121094 150.484375 42.164062 150.273438 42.160156 150.054688 L 42.160156 143.503906 C 42.164062 143.28125 42.121094 143.070312 42.039062 142.863281 C 41.957031 142.660156 41.835938 142.476562 41.679688 142.320312 C 41.523438 142.164062 41.339844 142.042969 41.132812 141.960938 C 40.929688 141.878906 40.714844 141.835938 40.492188 141.839844 Z M 20.707031 145.949219 C 20.3125 145.96875 19.972656 146.117188 19.683594 146.382812 C 19.394531 146.652344 19.222656 146.980469 19.171875 147.371094 C 19.121094 147.761719 19.203125 148.125 19.410156 148.457031 C 19.621094 148.789062 19.914062 149.019531 20.289062 149.140625 C 21.425781 149.527344 22.523438 149.90625 23.542969 150.28125 C 23.746094 150.355469 23.957031 150.386719 24.175781 150.378906 C 24.390625 150.367188 24.597656 150.320312 24.796875 150.226562 C 24.996094 150.136719 25.167969 150.007812 25.3125 149.851562 C 25.460938 149.691406 25.574219 149.507812 25.648438 149.304688 C 25.722656 149.101562 25.753906 148.890625 25.746094 148.671875 C 25.738281 148.457031 25.6875 148.25 25.59375 148.050781 C 25.503906 147.855469 25.378906 147.683594 25.214844 147.535156 C 25.054688 147.386719 24.875 147.277344 24.667969 147.203125 C 23.621094 146.820312 22.503906 146.429688 21.355469 146.039062 C 21.144531 145.964844 20.929688 145.933594 20.707031 145.949219 Z M 40.492188 158.21875 C 40.273438 158.222656 40.066406 158.265625 39.867188 158.351562 C 39.667969 158.441406 39.492188 158.5625 39.339844 158.714844 C 39.1875 158.871094 39.070312 159.050781 38.992188 159.253906 C 38.910156 159.457031 38.875 159.664062 38.875 159.882812 L 38.875 163.15625 C 38.875 163.375 38.914062 163.589844 38.996094 163.792969 C 39.078125 163.996094 39.195312 164.175781 39.347656 164.332031 C 39.503906 164.488281 39.683594 164.605469 39.882812 164.691406 C 40.085938 164.777344 40.296875 164.820312 40.519531 164.820312 C 40.738281 164.820312 40.949219 164.777344 41.152344 164.691406 C 41.355469 164.605469 41.53125 164.488281 41.6875 164.332031 C 41.839844 164.175781 41.960938 163.996094 42.039062 163.792969 C 42.121094 163.589844 42.164062 163.375 42.160156 163.15625 L 42.160156 159.882812 C 42.164062 159.660156 42.121094 159.445312 42.039062 159.242188 C 41.957031 159.035156 41.835938 158.855469 41.679688 158.699219 C 41.523438 158.542969 41.339844 158.421875 41.132812 158.339844 C 40.929688 158.253906 40.714844 158.214844 40.492188 158.21875 Z M -57.195312 158.257812 C -21.667969 158.328125 2.5625 163.171875 17.867188 167.996094 C 25.609375 170.433594 31.023438 172.832031 34.511719 174.621094 L 24.363281 174.621094 C 24.253906 174.605469 24.144531 174.597656 24.035156 174.601562 C 23.96875 174.605469 23.90625 174.613281 23.84375 174.621094 L -70.863281 174.621094 Z M 26.832031 177.898438 L 54.207031 177.898438 C 53.773438 178.546875 53.25 179.253906 52.488281 180.015625 C 50.285156 182.214844 46.671875 184.449219 40.519531 184.449219 C 34.363281 184.449219 30.753906 182.214844 28.546875 180.015625 C 27.785156 179.253906 27.261719 178.546875 26.832031 177.898438 Z M 26.832031 177.898438"/></g></g></g></g><g clip-path="url(#i)"><g mask="url(#j)"><g><g clip-path="url(#k)" transform="translate(761 202)"><g clip-path="url(#l)"><path fill="#040606" d="M 168.753906 142.910156 C 168.753906 144.507812 167.449219 145.8125 165.851562 145.8125 L 162.953125 145.8125 C 159.757812 145.8125 157.152344 148.417969 157.152344 151.613281 L 157.152344 169.015625 L 128.554688 147.566406 C 127.070312 146.433594 125.203125 145.8125 123.308594 145.8125 L 99.4375 145.8125 C 102.925781 138.808594 104.945312 130.945312 104.945312 122.609375 C 104.945312 110.214844 100.582031 98.828125 93.34375 89.863281 L 93.34375 79.101562 C 93.34375 77.503906 94.644531 76.203125 96.242188 76.203125 L 165.851562 76.203125 C 167.449219 76.203125 168.753906 77.503906 168.753906 79.101562 Z M 86.804688 6.679688 C 87.28125 6.558594 87.789062 6.558594 88.265625 6.679688 L 151.351562 23.199219 L 151.351562 36.582031 L 133.6875 45.507812 C 131.128906 36.726562 108.59375 32.695312 87.542969 32.695312 C 66.492188 32.695312 43.957031 36.726562 41.394531 45.507812 L 6.375 27.800781 Z M 157.152344 33.648438 L 157.152344 24.730469 L 168.777344 27.765625 Z M 46.933594 65.777344 L 46.933594 47.195312 C 46.933594 44.589844 60.746094 38.496094 87.542969 38.496094 C 114.335938 38.496094 128.148438 44.589844 128.148438 47.195312 L 128.148438 65.777344 C 119.671875 61.019531 103.1875 58.796875 87.542969 58.796875 C 71.894531 58.796875 55.410156 61.019531 46.933594 65.777344 Z M 87.542969 79.101562 L 87.542969 83.804688 C 78.296875 75.5 66.117188 70.402344 52.734375 70.402344 C 51.863281 70.402344 51.015625 70.492188 50.140625 70.523438 C 55.625 67.785156 68.179688 64.601562 87.542969 64.601562 C 106.597656 64.601562 119.050781 67.679688 124.667969 70.402344 L 96.242188 70.402344 C 91.4375 70.402344 87.542969 74.296875 87.542969 79.101562 Z M 93.195312 119.707031 C 92.550781 110.699219 88.96875 102.496094 83.394531 96.050781 L 87.484375 91.960938 C 94.113281 99.460938 98.339844 109.101562 98.996094 119.707031 Z M 55.636719 163.066406 C 64.644531 162.433594 72.847656 158.839844 79.292969 153.265625 L 83.382812 157.355469 C 75.882812 163.984375 66.242188 168.210938 55.636719 168.867188 Z M 26.179688 153.265625 C 32.625 158.839844 40.828125 162.433594 49.835938 163.066406 L 49.835938 168.867188 C 39.230469 168.210938 29.589844 163.984375 22.089844 157.355469 Z M 44.171875 77.027344 C 44.183594 77.027344 44.203125 77.027344 44.214844 77.027344 C 44.511719 77.027344 44.804688 76.984375 45.089844 76.890625 C 45.101562 76.890625 45.101562 76.882812 45.101562 76.882812 C 46.664062 76.632812 48.238281 76.449219 49.835938 76.347656 L 49.835938 82.148438 C 40.828125 82.796875 32.625 86.375 26.179688 91.949219 L 22.089844 87.859375 C 28.230469 82.433594 35.796875 78.601562 44.171875 77.027344 Z M 52.734375 157.414062 C 33.542969 157.414062 17.929688 141.800781 17.929688 122.609375 C 17.929688 103.414062 33.542969 87.804688 52.734375 87.804688 C 71.929688 87.804688 87.542969 103.414062 87.542969 122.609375 C 87.542969 141.800781 71.929688 157.414062 52.734375 157.414062 Z M 83.382812 87.859375 L 79.292969 91.949219 C 72.847656 86.375 64.644531 82.796875 55.636719 82.148438 L 55.636719 76.347656 C 66.242188 77.003906 75.882812 81.230469 83.382812 87.859375 Z M 17.988281 91.960938 L 22.078125 96.050781 C 16.503906 102.496094 12.910156 110.699219 12.277344 119.707031 L 6.476562 119.707031 C 7.132812 109.101562 11.359375 99.460938 17.988281 91.960938 Z M 6.476562 125.507812 L 12.277344 125.507812 C 12.910156 134.515625 16.503906 142.71875 22.078125 149.164062 L 17.988281 153.253906 C 11.359375 145.753906 7.132812 136.113281 6.476562 125.507812 Z M 87.484375 153.253906 L 83.394531 149.164062 C 88.96875 142.71875 92.550781 134.515625 93.195312 125.507812 L 98.996094 125.507812 C 98.339844 136.113281 94.113281 145.753906 87.484375 153.253906 Z M 154.25 58.796875 C 152.652344 58.796875 151.351562 57.496094 151.351562 55.898438 C 151.351562 54.300781 152.652344 52.996094 154.25 52.996094 C 155.847656 52.996094 157.152344 54.300781 157.152344 55.898438 C 157.152344 57.496094 155.847656 58.796875 154.25 58.796875 Z M 165.851562 70.402344 L 133.949219 70.402344 L 133.949219 51.875 L 151.351562 43.085938 L 151.351562 47.730469 C 147.984375 48.929688 145.550781 52.125 145.550781 55.898438 C 145.550781 60.703125 149.449219 64.601562 154.25 64.601562 C 159.054688 64.601562 162.953125 60.703125 162.953125 55.898438 C 162.953125 52.125 160.515625 48.929688 157.152344 47.730469 L 157.152344 40.148438 L 171.417969 32.933594 C 173.570312 31.8125 174.792969 29.546875 174.519531 27.15625 C 174.25 24.753906 172.539062 22.804688 170.179688 22.191406 L 89.726562 1.074219 C 88.300781 0.699219 86.78125 0.699219 85.34375 1.074219 L 4.902344 22.191406 C 2.535156 22.804688 0.835938 24.753906 0.5625 27.15625 C 0.300781 29.546875 1.515625 31.8125 3.699219 32.945312 L 41.132812 51.875 L 41.132812 71.75 C 31.449219 73.957031 22.769531 78.828125 15.949219 85.605469 C 15.914062 85.640625 15.859375 85.660156 15.824219 85.695312 C 15.789062 85.730469 15.765625 85.785156 15.734375 85.820312 C 6.339844 95.269531 0.527344 108.265625 0.527344 122.609375 C 0.527344 136.953125 6.339844 149.945312 15.734375 159.394531 C 15.765625 159.429688 15.789062 159.488281 15.824219 159.519531 C 15.859375 159.554688 15.914062 159.578125 15.949219 159.613281 C 25.398438 169.003906 38.390625 174.816406 52.734375 174.816406 C 67.078125 174.816406 80.074219 169.003906 89.523438 159.613281 C 89.558594 159.578125 89.613281 159.554688 89.648438 159.519531 C 89.683594 159.488281 89.707031 159.429688 89.738281 159.394531 C 92.105469 157.015625 94.238281 154.410156 96.117188 151.613281 L 123.308594 151.613281 C 123.945312 151.613281 124.542969 151.804688 125.042969 152.191406 L 153.683594 173.660156 C 154.703125 174.417969 155.917969 174.816406 157.140625 174.816406 C 158.023438 174.816406 158.917969 174.613281 159.757812 174.191406 C 161.730469 173.195312 162.953125 171.214844 162.953125 169.015625 L 162.953125 151.613281 L 165.851562 151.613281 C 170.65625 151.613281 174.554688 147.714844 174.554688 142.910156 L 174.554688 79.101562 C 174.554688 74.296875 170.65625 70.402344 165.851562 70.402344"/></g><path fill="#040606" d="M 61.4375 134.210938 C 61.4375 137.984375 59 141.179688 55.636719 142.378906 L 55.636719 126.042969 C 59 127.242188 61.4375 130.4375 61.4375 134.210938 Z M 44.035156 111.007812 C 44.035156 107.234375 46.46875 104.039062 49.835938 102.835938 L 49.835938 119.175781 C 46.46875 117.972656 44.035156 114.78125 44.035156 111.007812 Z M 61.4375 111.007812 C 61.4375 112.605469 62.742188 113.90625 64.335938 113.90625 C 65.933594 113.90625 67.238281 112.605469 67.238281 111.007812 C 67.238281 104.003906 62.253906 98.148438 55.636719 96.800781 L 55.636719 96.503906 C 55.636719 94.90625 54.332031 93.605469 52.734375 93.605469 C 51.136719 93.605469 49.835938 94.90625 49.835938 96.503906 L 49.835938 96.800781 C 43.21875 98.148438 38.234375 104.003906 38.234375 111.007812 C 38.234375 118.007812 43.21875 123.867188 49.835938 125.214844 L 49.835938 142.378906 C 46.46875 141.179688 44.035156 137.984375 44.035156 134.210938 C 44.035156 132.613281 42.730469 131.308594 41.132812 131.308594 C 39.535156 131.308594 38.234375 132.613281 38.234375 134.210938 C 38.234375 141.210938 43.21875 147.070312 49.835938 148.417969 L 49.835938 148.710938 C 49.835938 150.308594 51.136719 151.613281 52.734375 151.613281 C 54.332031 151.613281 55.636719 150.308594 55.636719 148.710938 L 55.636719 148.417969 C 62.253906 147.070312 67.238281 141.210938 67.238281 134.210938 C 67.238281 127.207031 62.253906 121.351562 55.636719 120.003906 L 55.636719 102.835938 C 59 104.039062 61.4375 107.234375 61.4375 111.007812"/><g clip-path="url(#m)"><path fill="#040606" d="M 157.152344 84.902344 L 104.945312 84.902344 C 103.347656 84.902344 102.042969 86.207031 102.042969 87.804688 C 102.042969 89.402344 103.347656 90.703125 104.945312 90.703125 L 157.152344 90.703125 C 158.75 90.703125 160.050781 89.402344 160.050781 87.804688 C 160.050781 86.207031 158.75 84.902344 157.152344 84.902344"/></g><g clip-path="url(#n)"><path fill="#040606" d="M 157.152344 108.105469 L 113.644531 108.105469 C 112.046875 108.105469 110.746094 109.410156 110.746094 111.007812 C 110.746094 112.605469 112.046875 113.90625 113.644531 113.90625 L 157.152344 113.90625 C 158.75 113.90625 160.050781 112.605469 160.050781 111.007812 C 160.050781 109.410156 158.75 108.105469 157.152344 108.105469"/></g><path fill="#040606" d="M 139.75 131.308594 L 113.644531 131.308594 C 112.046875 131.308594 110.746094 132.613281 110.746094 134.210938 C 110.746094 135.808594 112.046875 137.109375 113.644531 137.109375 L 139.75 137.109375 C 141.347656 137.109375 142.648438 135.808594 142.648438 134.210938 C 142.648438 132.613281 141.347656 131.308594 139.75 131.308594"/><path fill="#040606" d="M 142.648438 102.304688 C 144.246094 102.304688 145.550781 101.003906 145.550781 99.40625 C 145.550781 97.808594 144.246094 96.503906 142.648438 96.503906 L 110.746094 96.503906 C 109.148438 96.503906 107.84375 97.808594 107.84375 99.40625 C 107.84375 101.003906 109.148438 102.304688 110.746094 102.304688 L 142.648438 102.304688"/><path fill="#040606" d="M 113.644531 125.507812 L 116.546875 125.507812 C 118.144531 125.507812 119.445312 124.207031 119.445312 122.609375 C 119.445312 121.011719 118.144531 119.707031 116.546875 119.707031 L 113.644531 119.707031 C 112.046875 119.707031 110.746094 121.011719 110.746094 122.609375 C 110.746094 124.207031 112.046875 125.507812 113.644531 125.507812"/><g clip-path="url(#o)"><path fill="#040606" d="M 157.152344 119.707031 L 128.148438 119.707031 C 126.550781 119.707031 125.246094 121.011719 125.246094 122.609375 C 125.246094 124.207031 126.550781 125.507812 128.148438 125.507812 L 157.152344 125.507812 C 158.75 125.507812 160.050781 124.207031 160.050781 122.609375 C 160.050781 121.011719 158.75 119.707031 157.152344 119.707031"/></g></g></g></g></g><g fill="#FFF"><g><g><path d="M 4.578125 -63.015625 L 27.578125 -63.015625 C 33.984375 -63.015625 39.171875 -61.359375 43.140625 -58.046875 C 47.117188 -54.734375 49.109375 -49.921875 49.109375 -43.609375 C 49.109375 -37.296875 47.097656 -32.34375 43.078125 -28.75 C 39.054688 -25.164062 33.890625 -23.375 27.578125 -23.375 L 18.9375 -23.375 L 18.9375 0 L 4.578125 0 Z M 18.9375 -34.828125 L 22.984375 -34.828125 C 26.191406 -34.828125 28.828125 -35.472656 30.890625 -36.765625 C 32.953125 -38.066406 33.984375 -40.195312 33.984375 -43.15625 C 33.984375 -46.15625 32.953125 -48.300781 30.890625 -49.59375 C 28.828125 -50.894531 26.191406 -51.546875 22.984375 -51.546875 L 18.9375 -51.546875 Z M 18.9375 -34.828125" transform="translate(260.24 175.771)"/></g></g></g><g fill="#FFF"><g><g><path d="M 4.578125 -63.015625 L 27.109375 -63.015625 C 33.171875 -63.015625 38.109375 -61.394531 41.921875 -58.15625 C 45.742188 -54.925781 47.65625 -50.304688 47.65625 -44.296875 C 47.65625 -39.660156 46.492188 -35.773438 44.171875 -32.640625 C 41.859375 -29.515625 38.71875 -27.316406 34.75 -26.046875 L 56.4375 0 L 38.1875 0 L 18.9375 -24.890625 L 18.9375 0 L 4.578125 0 Z M 18.9375 -35.0625 L 20.625 -35.0625 C 21.945312 -35.0625 23.066406 -35.082031 23.984375 -35.125 C 24.898438 -35.175781 25.941406 -35.351562 27.109375 -35.65625 C 28.285156 -35.96875 29.226562 -36.40625 29.9375 -36.96875 C 30.65625 -37.53125 31.265625 -38.34375 31.765625 -39.40625 C 32.273438 -40.476562 32.53125 -41.773438 32.53125 -43.296875 C 32.53125 -44.828125 32.273438 -46.125 31.765625 -47.1875 C 31.265625 -48.257812 30.65625 -49.078125 29.9375 -49.640625 C 29.226562 -50.203125 28.285156 -50.632812 27.109375 -50.9375 C 25.941406 -51.25 24.898438 -51.425781 23.984375 -51.46875 C 23.066406 -51.519531 21.945312 -51.546875 20.625 -51.546875 L 18.9375 -51.546875 Z M 18.9375 -35.0625" transform="translate(316.829 175.771)"/></g></g></g><g fill="#FFF"><g><g><path d="M 1.75 -31.546875 C 1.75 -40.660156 4.851562 -48.375 11.0625 -54.6875 C 17.28125 -61 24.769531 -64.15625 33.53125 -64.15625 C 42.332031 -64.15625 49.8125 -61.007812 55.96875 -54.71875 C 62.132812 -48.4375 65.21875 -40.710938 65.21875 -31.546875 C 65.21875 -22.328125 62.1875 -14.570312 56.125 -8.28125 C 50.070312 -2 42.539062 1.140625 33.53125 1.140625 C 24.3125 1.140625 16.707031 -1.972656 10.71875 -8.203125 C 4.738281 -14.441406 1.75 -22.222656 1.75 -31.546875 Z M 17.265625 -31.546875 C 17.265625 -28.234375 17.769531 -25.210938 18.78125 -22.484375 C 19.800781 -19.765625 21.582031 -17.460938 24.125 -15.578125 C 26.675781 -13.691406 29.8125 -12.75 33.53125 -12.75 C 38.875 -12.75 42.90625 -14.582031 45.625 -18.25 C 48.351562 -21.914062 49.71875 -26.347656 49.71875 -31.546875 C 49.71875 -36.679688 48.328125 -41.09375 45.546875 -44.78125 C 42.773438 -48.476562 38.769531 -50.328125 33.53125 -50.328125 C 28.332031 -50.328125 24.320312 -48.476562 21.5 -44.78125 C 18.675781 -41.09375 17.265625 -36.679688 17.265625 -31.546875 Z M 17.265625 -31.546875" transform="translate(377.236 175.771)"/></g></g></g><g fill="#FFF"><g><g><path d="M 32 -63.015625 L 32 -17.796875 C 32 -11.628906 30.304688 -6.929688 26.921875 -3.703125 C 23.535156 -0.472656 18.6875 1.140625 12.375 1.140625 C 10.695312 1.140625 9.039062 0.9375 7.40625 0.53125 C 5.78125 0.125 4.40625 -0.367188 3.28125 -0.953125 C 2.164062 -1.535156 1.160156 -2.132812 0.265625 -2.75 C -0.617188 -3.363281 -1.269531 -3.875 -1.6875 -4.28125 L -2.375 -4.890625 L 2.21875 -16.875 C 5.21875 -14.03125 7.941406 -12.609375 10.390625 -12.609375 C 12.578125 -12.609375 14.332031 -13.332031 15.65625 -14.78125 C 16.976562 -16.226562 17.640625 -18.457031 17.640625 -21.46875 L 17.640625 -63.015625 Z M 32 -63.015625" transform="translate(449.938 175.771)"/></g></g></g><g fill="#FFF"><g><g><path d="M 40.625 -63.015625 L 40.625 -50.40625 L 18.9375 -50.40625 L 18.9375 -37.875 L 39.71875 -37.875 L 39.71875 -25.28125 L 18.9375 -25.28125 L 18.9375 -12.609375 L 40.625 -12.609375 L 40.625 0 L 4.578125 0 L 4.578125 -63.015625 Z M 40.625 -63.015625" transform="translate(491.482 175.771)"/></g></g></g><g fill="#FFF"><g><g><path d="M 38.109375 -12.984375 C 40.296875 -12.984375 42.421875 -13.3125 44.484375 -13.96875 C 46.546875 -14.632812 48.0625 -15.273438 49.03125 -15.890625 L 50.484375 -16.875 L 56.59375 -4.65625 C 56.382812 -4.507812 56.101562 -4.304688 55.75 -4.046875 C 55.394531 -3.796875 54.566406 -3.328125 53.265625 -2.640625 C 51.972656 -1.953125 50.585938 -1.351562 49.109375 -0.84375 C 47.628906 -0.332031 45.691406 0.125 43.296875 0.53125 C 40.910156 0.9375 38.441406 1.140625 35.890625 1.140625 C 30.035156 1.140625 24.484375 -0.296875 19.234375 -3.171875 C 13.992188 -6.046875 9.769531 -10.003906 6.5625 -15.046875 C 3.351562 -20.085938 1.75 -25.535156 1.75 -31.390625 C 1.75 -35.816406 2.691406 -40.066406 4.578125 -44.140625 C 6.460938 -48.210938 8.96875 -51.703125 12.09375 -54.609375 C 15.226562 -57.515625 18.882812 -59.832031 23.0625 -61.5625 C 27.238281 -63.289062 31.515625 -64.15625 35.890625 -64.15625 C 39.960938 -64.15625 43.71875 -63.671875 47.15625 -62.703125 C 50.59375 -61.734375 53.023438 -60.765625 54.453125 -59.796875 L 56.59375 -58.34375 L 50.484375 -46.125 C 50.128906 -46.4375 49.59375 -46.804688 48.875 -47.234375 C 48.164062 -47.671875 46.738281 -48.242188 44.59375 -48.953125 C 42.457031 -49.671875 40.296875 -50.03125 38.109375 -50.03125 C 34.648438 -50.03125 31.546875 -49.46875 28.796875 -48.34375 C 26.046875 -47.226562 23.867188 -45.753906 22.265625 -43.921875 C 20.660156 -42.085938 19.4375 -40.113281 18.59375 -38 C 17.757812 -35.882812 17.34375 -33.734375 17.34375 -31.546875 C 17.34375 -26.753906 19.132812 -22.460938 22.71875 -18.671875 C 26.3125 -14.878906 31.441406 -12.984375 38.109375 -12.984375 Z M 38.109375 -12.984375" transform="translate(541.503 175.771)"/></g></g></g><g fill="#FFF"><g><g><path d="M 0.609375 -50.40625 L 0.609375 -63.015625 L 44.90625 -63.015625 L 44.90625 -50.40625 L 29.9375 -50.40625 L 29.9375 0 L 15.578125 0 L 15.578125 -50.40625 Z M 0.609375 -50.40625" transform="translate(604.736 175.771)"/></g></g></g><g fill="#FFF"><g><g><path d="M 27.796875 -64.15625 C 31.210938 -64.15625 34.546875 -63.65625 37.796875 -62.65625 C 41.054688 -61.664062 43.476562 -60.6875 45.0625 -59.71875 L 47.359375 -58.203125 L 41.546875 -46.734375 C 41.085938 -47.046875 40.453125 -47.441406 39.640625 -47.921875 C 38.828125 -48.410156 37.300781 -49.0625 35.0625 -49.875 C 32.820312 -50.6875 30.734375 -51.09375 28.796875 -51.09375 C 26.398438 -51.09375 24.550781 -50.582031 23.25 -49.5625 C 21.957031 -48.550781 21.3125 -47.175781 21.3125 -45.4375 C 21.3125 -44.570312 21.613281 -43.769531 22.21875 -43.03125 C 22.832031 -42.300781 23.878906 -41.515625 25.359375 -40.671875 C 26.835938 -39.828125 28.132812 -39.148438 29.25 -38.640625 C 30.375 -38.128906 32.101562 -37.367188 34.4375 -36.359375 C 38.519531 -34.617188 42 -32.257812 44.875 -29.28125 C 47.75 -26.3125 49.1875 -22.941406 49.1875 -19.171875 C 49.1875 -15.554688 48.535156 -12.398438 47.234375 -9.703125 C 45.941406 -7.003906 44.160156 -4.890625 41.890625 -3.359375 C 39.628906 -1.828125 37.125 -0.695312 34.375 0.03125 C 31.625 0.769531 28.644531 1.140625 25.4375 1.140625 C 22.6875 1.140625 19.984375 0.859375 17.328125 0.296875 C 14.679688 -0.253906 12.46875 -0.953125 10.6875 -1.796875 C 8.90625 -2.640625 7.300781 -3.46875 5.875 -4.28125 C 4.457031 -5.09375 3.414062 -5.78125 2.75 -6.34375 L 1.75 -7.171875 L 8.9375 -19.25 C 9.550781 -18.738281 10.390625 -18.085938 11.453125 -17.296875 C 12.523438 -16.503906 14.421875 -15.445312 17.140625 -14.125 C 19.867188 -12.800781 22.273438 -12.140625 24.359375 -12.140625 C 30.421875 -12.140625 33.453125 -14.203125 33.453125 -18.328125 C 33.453125 -19.191406 33.234375 -19.992188 32.796875 -20.734375 C 32.367188 -21.472656 31.609375 -22.210938 30.515625 -22.953125 C 29.421875 -23.691406 28.453125 -24.273438 27.609375 -24.703125 C 26.765625 -25.140625 25.390625 -25.800781 23.484375 -26.6875 C 21.578125 -27.582031 20.164062 -28.257812 19.25 -28.71875 C 15.425781 -30.601562 12.46875 -32.957031 10.375 -35.78125 C 8.289062 -38.601562 7.25 -41.644531 7.25 -44.90625 C 7.25 -50.5625 9.335938 -55.179688 13.515625 -58.765625 C 17.691406 -62.359375 22.453125 -64.15625 27.796875 -64.15625 Z M 27.796875 -64.15625" transform="translate(169.866 271.231)"/></g></g></g><g fill="#FFF"><g><g><path d="M 36.578125 -63.015625 L 62.015625 0 L 46.59375 0 L 41.9375 -12.609375 L 17.953125 -12.609375 L 13.296875 0 L -2.140625 0 L 23.296875 -63.015625 Z M 37.046875 -25.203125 L 30.015625 -43.53125 L 29.859375 -43.53125 L 22.84375 -25.203125 Z M 37.046875 -25.203125" transform="translate(226.913 271.231)"/></g></g></g><g fill="#FFF"><g><g><path d="M 56.671875 0 L 53.6875 -37.34375 L 53.3125 -37.34375 L 40.40625 -0.375 L 31.84375 -0.375 L 18.9375 -37.34375 L 18.5625 -37.34375 L 15.578125 0 L 1.21875 0 L 6.875 -63.015625 L 22.15625 -63.015625 L 36.125 -26.65625 L 50.109375 -63.015625 L 65.375 -63.015625 L 71.03125 0 Z M 56.671875 0" transform="translate(292.513 271.231)"/></g></g></g><g fill="#FFF"><g><g><path d="M 4.578125 -63.015625 L 27.578125 -63.015625 C 33.984375 -63.015625 39.171875 -61.359375 43.140625 -58.046875 C 47.117188 -54.734375 49.109375 -49.921875 49.109375 -43.609375 C 49.109375 -37.296875 47.097656 -32.34375 43.078125 -28.75 C 39.054688 -25.164062 33.890625 -23.375 27.578125 -23.375 L 18.9375 -23.375 L 18.9375 0 L 4.578125 0 Z M 18.9375 -34.828125 L 22.984375 -34.828125 C 26.191406 -34.828125 28.828125 -35.472656 30.890625 -36.765625 C 32.953125 -38.066406 33.984375 -40.195312 33.984375 -43.15625 C 33.984375 -46.15625 32.953125 -48.300781 30.890625 -49.59375 C 28.828125 -50.894531 26.191406 -51.546875 22.984375 -51.546875 L 18.9375 -51.546875 Z M 18.9375 -34.828125" transform="translate(370.485 271.231)"/></g></g></g><g fill="#FFF"><g><g><path d="M 4.578125 -63.015625 L 27.109375 -63.015625 C 33.171875 -63.015625 38.109375 -61.394531 41.921875 -58.15625 C 45.742188 -54.925781 47.65625 -50.304688 47.65625 -44.296875 C 47.65625 -39.660156 46.492188 -35.773438 44.171875 -32.640625 C 41.859375 -29.515625 38.71875 -27.316406 34.75 -26.046875 L 56.4375 0 L 38.1875 0 L 18.9375 -24.890625 L 18.9375 0 L 4.578125 0 Z M 18.9375 -35.0625 L 20.625 -35.0625 C 21.945312 -35.0625 23.066406 -35.082031 23.984375 -35.125 C 24.898438 -35.175781 25.941406 -35.351562 27.109375 -35.65625 C 28.285156 -35.96875 29.226562 -36.40625 29.9375 -36.96875 C 30.65625 -37.53125 31.265625 -38.34375 31.765625 -39.40625 C 32.273438 -40.476562 32.53125 -41.773438 32.53125 -43.296875 C 32.53125 -44.828125 32.273438 -46.125 31.765625 -47.1875 C 31.265625 -48.257812 30.65625 -49.078125 29.9375 -49.640625 C 29.226562 -50.203125 28.285156 -50.632812 27.109375 -50.9375 C 25.941406 -51.25 24.898438 -51.425781 23.984375 -51.46875 C 23.066406 -51.519531 21.945312 -51.546875 20.625 -51.546875 L 18.9375 -51.546875 Z M 18.9375 -35.0625" transform="translate(427.073 271.231)"/></g></g></g><g fill="#FFF"><g><g><path d="M 36.578125 -63.015625 L 62.015625 0 L 46.59375 0 L 41.9375 -12.609375 L 17.953125 -12.609375 L 13.296875 0 L -2.140625 0 L 23.296875 -63.015625 Z M 37.046875 -25.203125 L 30.015625 -43.53125 L 29.859375 -43.53125 L 22.84375 -25.203125 Z M 37.046875 -25.203125" transform="translate(487.48 271.231)"/></g></g></g><g fill="#FFF"><g><g><path d="M 4.578125 -63.015625 L 22.84375 -63.015625 C 31.59375 -63.015625 39.070312 -60.019531 45.28125 -54.03125 C 51.5 -48.050781 54.609375 -40.554688 54.609375 -31.546875 C 54.609375 -22.484375 51.515625 -14.957031 45.328125 -8.96875 C 39.140625 -2.988281 31.644531 0 22.84375 0 L 4.578125 0 Z M 18.9375 -12.828125 L 21.15625 -12.828125 C 26.394531 -12.828125 30.679688 -14.597656 34.015625 -18.140625 C 37.359375 -21.679688 39.054688 -26.125 39.109375 -31.46875 C 39.109375 -36.8125 37.4375 -41.265625 34.09375 -44.828125 C 30.757812 -48.390625 26.445312 -50.171875 21.15625 -50.171875 L 18.9375 -50.171875 Z M 18.9375 -12.828125" transform="translate(553.08 271.231)"/></g></g></g><g fill="#FFF"><g><g><path d="M 36.578125 -63.015625 L 62.015625 0 L 46.59375 0 L 41.9375 -12.609375 L 17.953125 -12.609375 L 13.296875 0 L -2.140625 0 L 23.296875 -63.015625 Z M 37.046875 -25.203125 L 30.015625 -43.53125 L 29.859375 -43.53125 L 22.84375 -25.203125 Z M 37.046875 -25.203125" transform="translate(615.168 271.231)"/></g></g></g><g fill="#FFF"><g><g><path d="M 36.578125 -63.015625 L 62.015625 0 L 46.59375 0 L 41.9375 -12.609375 L 17.953125 -12.609375 L 13.296875 0 L -2.140625 0 L 23.296875 -63.015625 Z M 37.046875 -25.203125 L 30.015625 -43.53125 L 29.859375 -43.53125 L 22.84375 -25.203125 Z M 37.046875 -25.203125" transform="translate(680.768 271.231)"/></g></g></g></svg>